<svg width="113" height="92" viewBox="0 0 113 92" fill="none" xmlns="http://www.w3.org/2000/svg">
<g filter="url(#filter0_d_1033_259)">
<path d="M78.0208 -30.6907C80.347 -32.14 83.4488 -31.45 84.7628 -29.0311C92.3009 -15.1556 94.5684 0.968952 91.0475 16.4227C87.1582 33.4935 76.5242 48.3475 61.4851 57.717C46.4459 67.0865 28.2334 70.2041 10.8541 66.3838C-4.85639 62.9303 -18.7227 54.0632 -28.2872 41.4797C-29.9719 39.2632 -29.2729 36.154 -26.9234 34.6902L-9.87867 24.0712C-7.55243 22.622 -4.49385 23.348 -2.69521 25.4386C2.47888 31.4526 9.54018 35.6873 17.4516 37.4264C27.0121 39.5279 37.031 37.813 45.3042 32.6587C53.5774 27.5045 59.4272 19.3331 61.5668 9.94233C63.3317 2.19606 62.4527 -5.85656 59.1456 -13.0004C57.9783 -15.5219 58.6265 -18.608 60.9761 -20.0718L78.0208 -30.6907Z" fill="url(#paint0_linear_1033_259)"/>
</g>
<defs>
<filter id="filter0_d_1033_259" x="-49.2156" y="-47.4438" width="161.884" height="139.42" filterUnits="userSpaceOnUse" color-interpolation-filters="sRGB">
<feFlood flood-opacity="0" result="BackgroundImageFix"/>
<feColorMatrix in="SourceAlpha" type="matrix" values="0 0 0 0 0 0 0 0 0 0 0 0 0 0 0 0 0 0 127 0" result="hardAlpha"/>
<feOffset dy="4"/>
<feGaussianBlur stdDeviation="10"/>
<feComposite in2="hardAlpha" operator="out"/>
<feColorMatrix type="matrix" values="0 0 0 0 0 0 0 0 0 0 0 0 0 0 0 0 0 0 0.05 0"/>
<feBlend mode="normal" in2="BackgroundImageFix" result="effect1_dropShadow_1033_259"/>
<feBlend mode="normal" in="SourceGraphic" in2="effect1_dropShadow_1033_259" result="shape"/>
</filter>
<linearGradient id="paint0_linear_1033_259" x1="-38.3894" y1="22.263" x2="88.9894" y2="-19.5594" gradientUnits="userSpaceOnUse">
<stop stop-color="#00BF58"/>
<stop offset="1" stop-color="#E3FF75"/>
</linearGradient>
</defs>
</svg>
