<svg width="20" height="20" viewBox="0 0 20 20" fill="none" xmlns="http://www.w3.org/2000/svg">
<path d="M19.5 9.75C19.5 10.5825 18.48 11.25 18.27 12.0375C18.06 12.825 18.6 13.935 18.195 14.625C17.79 15.315 16.56 15.4125 15.99 15.99C15.42 16.5675 15.33 17.79 14.625 18.195C13.92 18.6 12.825 18.06 12.0375 18.27C11.25 18.48 10.5825 19.5 9.75 19.5C8.9175 19.5 8.25 18.48 7.5 18.27C6.75 18.06 5.6025 18.6 4.9125 18.195C4.2225 17.79 4.125 16.56 3.5475 15.99C2.97 15.42 1.7475 15.33 1.3425 14.625C0.9375 13.92 1.4775 12.825 1.2675 12.0375C1.0575 11.25 0 10.5825 0 9.75C0 8.9175 1.02 8.25 1.23 7.5C1.44 6.75 0.9 5.6025 1.305 4.9125C1.71 4.2225 2.94 4.0875 3.51 3.51C4.08 2.9325 4.17 1.71 4.875 1.305C5.58 0.9 6.675 1.44 7.4625 1.23C8.25 1.02 8.9175 0 9.75 0C10.5825 0 11.25 1.02 12.0375 1.23C12.825 1.44 13.935 0.9 14.625 1.305C15.315 1.71 15.4125 2.94 15.99 3.51C16.5675 4.08 17.79 4.17 18.195 4.875C18.6 5.58 18.06 6.675 18.27 7.4625C18.48 8.25 19.5 8.9175 19.5 9.75Z" fill="#109138"/>
<path d="M9.75 16.125C13.2708 16.125 16.125 13.2708 16.125 9.75C16.125 6.22918 13.2708 3.375 9.75 3.375C6.22918 3.375 3.375 6.22918 3.375 9.75C3.375 13.2708 6.22918 16.125 9.75 16.125Z" fill="#20BF55"/>
<path d="M9.09759 11.5274C9.02369 11.5277 8.95045 11.5133 8.8822 11.485C8.81394 11.4566 8.75202 11.4149 8.70009 11.3624L6.95259 9.64487C6.84725 9.5394 6.78809 9.39643 6.78809 9.24737C6.78809 9.0983 6.84725 8.95534 6.95259 8.84987C7.05806 8.74453 7.20103 8.68536 7.35009 8.68536C7.49915 8.68536 7.64212 8.74453 7.74759 8.84987L9.09759 10.1849L11.7526 7.56737C11.859 7.46194 12.0029 7.40311 12.1527 7.40381C12.3025 7.40452 12.4459 7.4647 12.5513 7.57112C12.6568 7.67753 12.7156 7.82147 12.7149 7.97127C12.7142 8.12106 12.654 8.26444 12.5476 8.36987L9.48759 11.3699C9.43695 11.4216 9.37617 11.4623 9.30905 11.4894C9.24194 11.5165 9.16994 11.5294 9.09759 11.5274Z" fill="#EDEBEA"/>
</svg>
