<svg width="17" height="5" viewBox="0 0 17 5" fill="none" xmlns="http://www.w3.org/2000/svg">
<path d="M8.5 0.71875C7.51794 0.71875 6.71875 1.51794 6.71875 2.5C6.71875 3.48206 7.51794 4.28125 8.5 4.28125C9.48206 4.28125 10.2812 3.48206 10.2812 2.5C10.2812 1.51794 9.48206 0.71875 8.5 0.71875ZM2.5625 0.71875C1.58044 0.71875 0.78125 1.51794 0.78125 2.5C0.78125 3.48206 1.58044 4.28125 2.5625 4.28125C3.54456 4.28125 4.34375 3.48206 4.34375 2.5C4.34375 1.51794 3.54456 0.71875 2.5625 0.71875ZM14.4375 0.71875C13.4554 0.71875 12.6562 1.51794 12.6562 2.5C12.6562 3.48206 13.4554 4.28125 14.4375 4.28125C15.4196 4.28125 16.2188 3.48206 16.2188 2.5C16.2188 1.51794 15.4196 0.71875 14.4375 0.71875Z" fill="#031136"/>
</svg>
