<svg width="14" height="13" viewBox="0 0 14 13" fill="none" xmlns="http://www.w3.org/2000/svg">
<path d="M10.2733 13.0002C10.0164 13.0002 9.84522 12.9146 9.674 12.7433L7.10571 10.175C6.76327 9.8326 6.76327 9.31894 7.10571 8.9765C7.44815 8.63406 7.9618 8.63406 8.30424 8.9765L9.41717 10.0894V1.01479C9.41717 0.501131 9.75961 0.158691 10.2733 0.158691C10.7869 0.158691 11.1294 0.501131 11.1294 1.01479V10.0894L12.2423 8.9765C12.5847 8.63406 13.0984 8.63406 13.4408 8.9765C13.7833 9.31894 13.7833 9.8326 13.4408 10.175L10.8725 12.7433C10.7013 12.9146 10.5301 13.0002 10.2733 13.0002Z" fill="#031136"/>
<path d="M3.42439 12.8415C2.91073 12.8415 2.56829 12.499 2.56829 11.9854V2.91073L1.45537 4.02366C1.11293 4.3661 0.599269 4.3661 0.25683 4.02366C-0.0856098 3.68122 -0.0856098 3.16756 0.25683 2.82512L2.82512 0.25683C3.16756 -0.0856098 3.68122 -0.0856098 4.02366 0.25683L6.59196 2.82512C6.9344 3.16756 6.9344 3.68122 6.59196 4.02366C6.24952 4.3661 5.73586 4.3661 5.39342 4.02366L4.28049 2.91073V11.9854C4.28049 12.499 3.93805 12.8415 3.42439 12.8415Z" fill="#031136"/>
</svg>
