<svg width="18" height="18" viewBox="0 0 18 18" fill="none" xmlns="http://www.w3.org/2000/svg">
<g clip-path="url(#clip0_944_255)">
<path d="M14.9374 0.677747C14.0302 -0.227869 12.561 -0.227869 11.6537 0.677747L10.8318 1.50422L2.0821 10.2493L2.0635 10.268C2.05904 10.2725 2.05904 10.2773 2.0542 10.2773C2.04491 10.2912 2.03096 10.3051 2.02185 10.319C2.02185 10.3237 2.01701 10.3237 2.01701 10.3283C2.00772 10.3423 2.00325 10.3516 1.99377 10.3655C1.98931 10.3702 1.98931 10.3747 1.98462 10.3794C1.97997 10.3934 1.97532 10.4027 1.97053 10.4166C1.97053 10.4211 1.96606 10.4211 1.96606 10.4259L0.0247029 16.2636C-0.00321452 16.345 -0.00756771 16.4327 0.0121445 16.5165C0.0318567 16.6002 0.0748328 16.6768 0.136124 16.7372C0.223929 16.8239 0.342477 16.8724 0.465889 16.872C0.516319 16.8711 0.566302 16.8633 0.6145 16.8488L6.44769 14.9028C6.45219 14.9028 6.45219 14.9028 6.45699 14.8983C6.47167 14.894 6.4857 14.8877 6.49868 14.8796C6.50223 14.8791 6.50554 14.8776 6.50812 14.8751C6.52192 14.8658 6.54052 14.8563 6.55446 14.847C6.56826 14.8379 6.58236 14.824 6.5963 14.8147C6.60095 14.8098 6.60545 14.8098 6.60545 14.8054C6.61029 14.8007 6.61958 14.7962 6.62419 14.7868L16.1958 5.21509C17.1015 4.30787 17.1015 2.83871 16.1958 1.93161L14.9374 0.677747ZM6.29912 13.8114L3.06678 10.5792L11.1569 2.48905L14.3893 5.72124L6.29912 13.8114ZM2.6115 11.4383L5.43534 14.262L1.19507 15.6738L2.6115 11.4383ZM15.5411 4.56485L15.0488 5.06183L11.8163 1.82938L12.3135 1.33252C12.8572 0.789206 13.7386 0.789206 14.2825 1.33252L15.5456 2.59571C16.0854 3.14192 16.0833 4.02125 15.5411 4.56485Z" fill="#031136"/>
</g>
<defs>
<clipPath id="clip0_944_255">
<rect width="18" height="18" fill="white"/>
</clipPath>
</defs>
</svg>
