<svg width="92" height="92" viewBox="0 0 92 92" fill="none" xmlns="http://www.w3.org/2000/svg">
<g clip-path="url(#clip0_944_457)">
<path d="M60.3295 82.1035H39.3934L42.7494 69.4409H56.9733L60.3295 82.1035Z" fill="#0B1226"/>
<path d="M63.8139 87.3036H35.909V84.6151C35.909 83.1213 37.1199 81.9104 38.6137 81.9104H61.1094C62.6032 81.9104 63.8141 83.1213 63.8141 84.6151V87.3036H63.8139ZM85.7311 71.7092H13.9916C12.4978 71.7092 11.2869 70.4983 11.2869 69.0045V23.9901C11.2869 22.4963 12.4978 21.2854 13.9916 21.2854H85.7311C87.225 21.2854 88.4359 22.4963 88.4359 23.9901V69.0045C88.4359 70.4983 87.225 71.7092 85.7311 71.7092Z" fill="#131C46"/>
<path d="M14.5701 24.5684H85.153V68.4264H14.5701V24.5684Z" fill="white"/>
<path d="M19.8624 2.30005H79.7002V63.134H19.8624V2.30005Z" fill="#ECFFF1"/>
<path d="M19.8624 2.30005H79.7002V12.1213H19.8624V2.30005Z" fill="#DDFE74"/>
<path d="M61.0577 8.89094C61.9856 8.89094 62.7379 8.13868 62.7379 7.21073C62.7379 6.28277 61.9856 5.53052 61.0577 5.53052C60.1297 5.53052 59.3774 6.28277 59.3774 7.21073C59.3774 8.13868 60.1297 8.89094 61.0577 8.89094Z" fill="white"/>
<path d="M67.6942 8.89094C68.6222 8.89094 69.3745 8.13868 69.3745 7.21073C69.3745 6.28277 68.6222 5.53052 67.6942 5.53052C66.7663 5.53052 66.014 6.28277 66.014 7.21073C66.014 8.13868 66.7663 8.89094 67.6942 8.89094Z" fill="white"/>
<path d="M74.3307 8.89094C75.2587 8.89094 76.0109 8.13868 76.0109 7.21073C76.0109 6.28277 75.2587 5.53052 74.3307 5.53052C73.4028 5.53052 72.6505 6.28277 72.6505 7.21073C72.6505 8.13868 73.4028 8.89094 74.3307 8.89094Z" fill="white"/>
<path d="M25.533 17.792H74.0299V27.2428H25.533V17.792Z" fill="white"/>
<path d="M25.533 32.9131H42.6654V42.351H25.533V32.9131ZM66.0447 40.8194H48.8221C48.7196 40.8194 48.6213 40.7787 48.5489 40.7063C48.4764 40.6338 48.4357 40.5355 48.4357 40.433C48.4357 40.3306 48.4764 40.2323 48.5489 40.1598C48.6213 40.0874 48.7196 40.0466 48.8221 40.0466H66.0447C66.1472 40.0466 66.2455 40.0874 66.3179 40.1598C66.3904 40.2323 66.4311 40.3306 66.4311 40.433C66.4311 40.5355 66.3904 40.6338 66.3179 40.7063C66.2455 40.7787 66.1472 40.8194 66.0447 40.8194ZM73.3426 35.2172H48.8221C48.7196 35.2172 48.6213 35.1765 48.5489 35.1041C48.4764 35.0316 48.4357 34.9333 48.4357 34.8308C48.4357 34.7284 48.4764 34.6301 48.5489 34.5576C48.6213 34.4852 48.7196 34.4445 48.8221 34.4445H73.3426C73.4451 34.4445 73.5434 34.4852 73.6158 34.5576C73.6883 34.6301 73.729 34.7284 73.729 34.8308C73.729 34.9333 73.6883 35.0316 73.6158 35.1041C73.5434 35.1765 73.4451 35.2172 73.3426 35.2172ZM25.533 48.0344H42.6654V57.4723H25.533V48.0344ZM66.0447 55.9407H48.8221C48.7713 55.9407 48.7211 55.9308 48.6742 55.9113C48.6273 55.8919 48.5847 55.8635 48.5489 55.8276C48.513 55.7917 48.4845 55.7491 48.4651 55.7022C48.4457 55.6553 48.4357 55.6051 48.4357 55.5544C48.4357 55.5036 48.4457 55.4534 48.4651 55.4065C48.4845 55.3596 48.513 55.317 48.5489 55.2811C48.5847 55.2453 48.6273 55.2168 48.6742 55.1974C48.7211 55.178 48.7713 55.168 48.8221 55.168H66.0447C66.0955 55.168 66.1457 55.178 66.1926 55.1974C66.2395 55.2168 66.2821 55.2453 66.3179 55.2811C66.3538 55.317 66.3823 55.3596 66.4017 55.4065C66.4211 55.4534 66.4311 55.5036 66.4311 55.5544C66.4311 55.6051 66.4211 55.6553 66.4017 55.7022C66.3823 55.7491 66.3538 55.7917 66.3179 55.8276C66.2821 55.8635 66.2395 55.8919 66.1926 55.9113C66.1457 55.9308 66.0955 55.9407 66.0447 55.9407ZM73.3426 50.3386H48.8221C48.7196 50.3386 48.6213 50.2978 48.5489 50.2254C48.4764 50.1529 48.4357 50.0546 48.4357 49.9522C48.4357 49.8497 48.4764 49.7514 48.5489 49.6789C48.6213 49.6065 48.7196 49.5658 48.8221 49.5658H73.3426C73.4451 49.5658 73.5434 49.6065 73.6158 49.6789C73.6883 49.7514 73.729 49.8497 73.729 49.9522C73.729 50.0546 73.6883 50.1529 73.6158 50.2254C73.5434 50.2978 73.4451 50.3386 73.3426 50.3386Z" fill="#D6FFE6"/>
<path d="M88.3498 54.1416C89.2356 53.2558 89.2356 51.8197 88.3498 50.9339L76.278 38.8621L73.0703 42.0697L85.1422 54.1416C86.0279 55.0275 87.464 55.0275 88.3498 54.1416Z" fill="#505D98"/>
<path d="M67.8673 47.6935C71.5388 47.9633 75.3032 46.6977 78.1044 43.8962C83.2147 38.7859 83.2147 30.4708 78.1044 25.3605C72.9942 20.2502 64.6792 20.2502 59.5689 25.3607C54.4586 30.471 54.4586 38.7861 59.5689 43.8964C61.8779 46.2052 64.8411 47.471 67.8673 47.6935Z" fill="#131C46"/>
<path d="M76.873 42.6588C81.299 38.2362 81.2947 31.0356 76.8635 26.6075C72.4322 22.1794 65.2264 22.1753 60.8004 26.598C56.3743 31.0206 56.3786 38.2212 60.8099 42.6493C65.2411 47.0774 72.447 47.0815 76.873 42.6588Z" fill="#F0E8F9"/>
<mask id="mask0_944_457" style="mask-type:luminance" maskUnits="userSpaceOnUse" x="57" y="23" width="24" height="23">
<path d="M76.873 42.6588C81.299 38.2362 81.2947 31.0356 76.8635 26.6075C72.4322 22.1794 65.2264 22.1753 60.8004 26.598C56.3743 31.0206 56.3786 38.2212 60.8099 42.6493C65.2411 47.0774 72.447 47.0815 76.873 42.6588Z" fill="white"/>
</mask>
<g mask="url(#mask0_944_457)">
<path d="M25.533 17.7917H74.0299V27.2425H25.533V17.7917Z" fill="white"/>
<path d="M66.0447 40.8193H48.8221C48.7196 40.8193 48.6213 40.7786 48.5488 40.7061C48.4764 40.6337 48.4357 40.5354 48.4357 40.4329C48.4357 40.3304 48.4764 40.2322 48.5488 40.1597C48.6213 40.0872 48.7196 40.0465 48.8221 40.0465H66.0447C66.1472 40.0465 66.2455 40.0872 66.3179 40.1597C66.3904 40.2322 66.4311 40.3304 66.4311 40.4329C66.4311 40.5354 66.3904 40.6337 66.3179 40.7061C66.2455 40.7786 66.1472 40.8193 66.0447 40.8193ZM73.3426 35.2171H48.8221C48.7196 35.2171 48.6213 35.1764 48.5488 35.1039C48.4764 35.0315 48.4357 34.9332 48.4357 34.8307C48.4357 34.7282 48.4764 34.63 48.5488 34.5575C48.6213 34.485 48.7196 34.4443 48.8221 34.4443H73.3426C73.4451 34.4443 73.5434 34.485 73.6158 34.5575C73.6883 34.63 73.729 34.7282 73.729 34.8307C73.729 34.9332 73.6883 35.0315 73.6158 35.1039C73.5434 35.1764 73.4451 35.2171 73.3426 35.2171Z" fill="#E2D2F7"/>
</g>
<path d="M7.99316 53.9102H52.4646V82.5273H7.99316V53.9102Z" fill="white"/>
<path d="M10.265 53.9102H7.99316V82.5273H52.4646V80.2555H21.6244C15.3508 80.2555 10.265 75.1697 10.265 68.8961V53.9102Z" fill="#F0E8F9"/>
<path d="M54.7346 82.5273V53.7972C54.7346 52.7303 53.8698 51.8652 52.8027 51.8652H7.65514C6.58822 51.8652 5.72319 52.7301 5.72319 53.7972V82.5273H2.98596V85.8362C2.98596 87.97 4.71585 89.6999 6.84968 89.6999H53.6079C55.7418 89.6999 57.4716 87.97 57.4716 85.8362V82.5273H54.7346ZM7.99316 53.9102H52.4646V82.5273H7.99316V53.9102Z" fill="#A0EF99"/>
<path d="M33.4899 86.214H26.9681C25.3677 86.214 24.0703 84.9167 24.0703 83.3162V82.5273H36.3879V83.3162C36.3877 84.9165 35.0904 86.214 33.4899 86.214Z" fill="#10C45B"/>
<path d="M48.405 58.4276H21.1449C21.0425 58.4276 20.9442 58.3869 20.8717 58.3144C20.7993 58.2419 20.7585 58.1437 20.7585 58.0412C20.7585 57.9387 20.7993 57.8404 20.8717 57.768C20.9442 57.6955 21.0425 57.6548 21.1449 57.6548H48.405C48.5074 57.6548 48.6057 57.6955 48.6782 57.768C48.7506 57.8404 48.7913 57.9387 48.7913 58.0412C48.7913 58.1437 48.7506 58.2419 48.6782 58.3144C48.6057 58.3869 48.5074 58.4276 48.405 58.4276Z" fill="#031136"/>
<path d="M17.0451 58.4276H12.053C11.9505 58.4276 11.8523 58.3869 11.7798 58.3144C11.7073 58.2419 11.6666 58.1437 11.6666 58.0412C11.6666 57.9387 11.7073 57.8404 11.7798 57.768C11.8523 57.6955 11.9505 57.6548 12.053 57.6548H17.0451C17.1476 57.6548 17.2458 57.6955 17.3183 57.768C17.3908 57.8404 17.4315 57.9387 17.4315 58.0412C17.4315 58.1437 17.3908 58.2419 17.3183 58.3144C17.2458 58.3869 17.1476 58.4276 17.0451 58.4276ZM48.4051 62.5273H30.6309C30.5285 62.5273 30.4302 62.4866 30.3577 62.4142C30.2852 62.3417 30.2445 62.2434 30.2445 62.1409C30.2445 62.0385 30.2852 61.9402 30.3577 61.8677C30.4302 61.7953 30.5285 61.7546 30.6309 61.7546H48.4051C48.5075 61.7546 48.6058 61.7953 48.6783 61.8677C48.7507 61.9402 48.7915 62.0385 48.7915 62.1409C48.7915 62.2434 48.7507 62.3417 48.6783 62.4142C48.6058 62.4866 48.5075 62.5273 48.4051 62.5273Z" fill="#D9FC74"/>
<path d="M26.5309 62.5274H14.786C14.6836 62.5274 14.5853 62.4867 14.5128 62.4142C14.4404 62.3418 14.3997 62.2435 14.3997 62.141C14.3997 62.0386 14.4404 61.9403 14.5128 61.8678C14.5853 61.7954 14.6836 61.7546 14.786 61.7546H26.5309C26.6334 61.7546 26.7316 61.7954 26.8041 61.8678C26.8766 61.9403 26.9173 62.0386 26.9173 62.141C26.9173 62.2435 26.8766 62.3418 26.8041 62.4142C26.7316 62.4867 26.6334 62.5274 26.5309 62.5274ZM48.405 66.6274H23.8781C23.8273 66.6274 23.7771 66.6174 23.7302 66.598C23.6833 66.5785 23.6407 66.5501 23.6049 66.5142C23.569 66.4783 23.5405 66.4357 23.5211 66.3889C23.5017 66.342 23.4917 66.2917 23.4917 66.241C23.4917 66.1902 23.5017 66.14 23.5211 66.0931C23.5405 66.0462 23.569 66.0036 23.6049 65.9678C23.6407 65.9319 23.6833 65.9034 23.7302 65.884C23.7771 65.8646 23.8273 65.8546 23.8781 65.8546H48.4048C48.4555 65.8546 48.5058 65.8646 48.5527 65.884C48.5996 65.9034 48.6422 65.9318 48.678 65.9677C48.7139 66.0036 48.7424 66.0462 48.7618 66.093C48.7813 66.1399 48.7913 66.1902 48.7913 66.2409C48.7913 66.2916 48.7813 66.3419 48.7619 66.3888C48.7425 66.4357 48.714 66.4783 48.6782 66.5141C48.6423 66.55 48.5997 66.5785 48.5528 66.5979C48.506 66.6174 48.4557 66.6274 48.405 66.6274Z" fill="#031136"/>
<path d="M19.7783 66.6273H14.786C14.7353 66.6273 14.6851 66.6173 14.6382 66.5979C14.5913 66.5784 14.5487 66.55 14.5128 66.5141C14.4769 66.4782 14.4485 66.4356 14.4291 66.3887C14.4097 66.3419 14.3997 66.2916 14.3997 66.2409C14.3997 66.1901 14.4097 66.1399 14.4291 66.093C14.4485 66.0461 14.4769 66.0035 14.5128 65.9677C14.5487 65.9318 14.5913 65.9033 14.6382 65.8839C14.6851 65.8645 14.7353 65.8545 14.786 65.8545H19.7783C19.829 65.8545 19.8793 65.8645 19.9262 65.8839C19.9731 65.9033 20.0156 65.9318 20.0515 65.9677C20.0874 66.0035 20.1159 66.0461 20.1353 66.093C20.1547 66.1399 20.1647 66.1901 20.1647 66.2409C20.1647 66.2916 20.1547 66.3419 20.1353 66.3887C20.1159 66.4356 20.0874 66.4782 20.0515 66.5141C20.0156 66.55 19.9731 66.5784 19.9262 66.5979C19.8793 66.6173 19.829 66.6273 19.7783 66.6273ZM48.405 70.727H21.145C21.0425 70.727 20.9442 70.6863 20.8717 70.6139C20.7993 70.5414 20.7586 70.4431 20.7586 70.3407C20.7586 70.2382 20.7993 70.1399 20.8717 70.0674C20.9442 69.995 21.0425 69.9543 21.145 69.9543H48.405C48.5075 69.9543 48.6057 69.995 48.6782 70.0674C48.7507 70.1399 48.7914 70.2382 48.7914 70.3407C48.7914 70.4431 48.7507 70.5414 48.6782 70.6139C48.6057 70.6863 48.5075 70.727 48.405 70.727Z" fill="#D9FC74"/>
<path d="M17.0451 70.7271H12.053C11.9505 70.7271 11.8523 70.6864 11.7798 70.614C11.7073 70.5415 11.6666 70.4432 11.6666 70.3407C11.6666 70.2383 11.7073 70.14 11.7798 70.0675C11.8523 69.9951 11.9505 69.9543 12.053 69.9543H17.0451C17.1476 69.9543 17.2458 69.9951 17.3183 70.0675C17.3908 70.14 17.4315 70.2383 17.4315 70.3407C17.4315 70.4432 17.3908 70.5415 17.3183 70.614C17.2458 70.6864 17.1476 70.7271 17.0451 70.7271ZM48.4051 74.8271H30.6309C30.5285 74.8271 30.4302 74.7864 30.3577 74.7139C30.2852 74.6414 30.2445 74.5432 30.2445 74.4407C30.2445 74.3382 30.2852 74.2399 30.3577 74.1675C30.4302 74.095 30.5285 74.0543 30.6309 74.0543H48.4051C48.5075 74.0543 48.6058 74.095 48.6783 74.1675C48.7507 74.2399 48.7915 74.3382 48.7915 74.4407C48.7915 74.5432 48.7507 74.6414 48.6783 74.7139C48.6058 74.7864 48.5075 74.8271 48.4051 74.8271Z" fill="#031136"/>
<path d="M26.5309 74.8272H14.786C14.6836 74.8272 14.5853 74.7865 14.5128 74.7141C14.4404 74.6416 14.3997 74.5433 14.3997 74.4408C14.3997 74.3384 14.4404 74.2401 14.5128 74.1676C14.5853 74.0952 14.6836 74.0544 14.786 74.0544H26.5309C26.6334 74.0544 26.7316 74.0952 26.8041 74.1676C26.8766 74.2401 26.9173 74.3384 26.9173 74.4408C26.9173 74.5433 26.8766 74.6416 26.8041 74.7141C26.7316 74.7865 26.6334 74.8272 26.5309 74.8272ZM48.405 78.927H23.8781C23.8273 78.927 23.7771 78.917 23.7302 78.8976C23.6833 78.8782 23.6407 78.8497 23.6049 78.8138C23.569 78.7779 23.5405 78.7353 23.5211 78.6885C23.5017 78.6416 23.4917 78.5913 23.4917 78.5406C23.4917 78.4899 23.5017 78.4396 23.5211 78.3927C23.5405 78.3459 23.569 78.3033 23.6049 78.2674C23.6407 78.2315 23.6833 78.203 23.7302 78.1836C23.7771 78.1642 23.8273 78.1542 23.8781 78.1542H48.4048C48.5073 78.1542 48.6056 78.1949 48.678 78.2673C48.7505 78.3398 48.7913 78.438 48.7913 78.5405C48.7913 78.643 48.7506 78.7413 48.6782 78.8138C48.6057 78.8862 48.5075 78.927 48.405 78.927Z" fill="#D9FC74"/>
<path d="M19.7783 78.9268H14.786C14.7353 78.9268 14.6851 78.9168 14.6382 78.8974C14.5913 78.878 14.5487 78.8495 14.5128 78.8137C14.4769 78.7778 14.4485 78.7352 14.4291 78.6883C14.4097 78.6414 14.3997 78.5912 14.3997 78.5404C14.3997 78.4897 14.4097 78.4395 14.4291 78.3926C14.4485 78.3457 14.4769 78.3031 14.5128 78.2672C14.5487 78.2313 14.5913 78.2029 14.6382 78.1835C14.6851 78.164 14.7353 78.1541 14.786 78.1541H19.7783C19.829 78.1541 19.8793 78.164 19.9262 78.1835C19.9731 78.2029 20.0156 78.2313 20.0515 78.2672C20.0874 78.3031 20.1159 78.3457 20.1353 78.3926C20.1547 78.4395 20.1647 78.4897 20.1647 78.5404C20.1647 78.5912 20.1547 78.6414 20.1353 78.6883C20.1159 78.7352 20.0874 78.7778 20.0515 78.8137C20.0156 78.8495 19.9731 78.878 19.9262 78.8974C19.8793 78.9168 19.829 78.9268 19.7783 78.9268Z" fill="#031136"/>
<path d="M3.10266 12.8389H30.4027V29.8729H3.10266V12.8389Z" fill="#A1F19A"/>
<g filter="url(#filter0_d_944_457)">
<path d="M3.10266 7.56934H30.4027V12.8387H3.10266V7.56934Z" fill="url(#paint0_linear_944_457)"/>
</g>
<path d="M12.4237 25.2534C12.2912 25.2535 12.1626 25.208 12.0597 25.1245L8.04043 21.8745C7.75638 21.6562 7.75638 21.1913 8.04043 20.973L12.0597 17.723C12.1795 17.6286 12.3316 17.5852 12.4832 17.6022C12.6347 17.6192 12.7734 17.6952 12.8693 17.8138C12.9652 17.9323 13.0105 18.0839 12.9954 18.2357C12.9803 18.3874 12.906 18.5271 12.7886 18.6244L9.32659 21.4237L12.7886 24.2231C13.2165 24.5445 12.9477 25.2732 12.4237 25.2534ZM21.0817 25.2534C20.5575 25.2732 20.2891 24.5445 20.717 24.2231L24.179 21.4237L20.717 18.6244C20.6567 18.5769 20.6065 18.5179 20.5692 18.4509C20.5319 18.3838 20.5083 18.31 20.4998 18.2338C20.4912 18.1575 20.4979 18.0803 20.5194 18.0067C20.5409 17.933 20.5768 17.8644 20.6251 17.8047C20.6733 17.7451 20.7329 17.6956 20.8004 17.6591C20.868 17.6227 20.942 17.6 21.0184 17.5924C21.0948 17.5848 21.1719 17.5924 21.2452 17.6148C21.3186 17.6372 21.3868 17.674 21.4459 17.723L25.4652 20.973C25.7492 21.1913 25.7492 21.6562 25.4652 21.8745L21.4459 25.1245C21.3428 25.208 21.2143 25.2535 21.0817 25.2534ZM15.9094 25.2747C15.5456 25.2788 15.2608 24.9283 15.3424 24.5725L16.7573 18.03C16.7898 17.8798 16.8806 17.7486 17.0098 17.6654C17.139 17.5821 17.296 17.5536 17.4462 17.5861C17.5964 17.6186 17.7276 17.7094 17.8108 17.8386C17.8941 17.9678 17.9226 18.1248 17.8901 18.275L16.4753 24.8175C16.4473 24.9469 16.3759 25.0627 16.273 25.1459C16.1701 25.2291 16.0418 25.2745 15.9094 25.2747Z" fill="white"/>
</g>
<defs>
<filter id="filter0_d_944_457" x="-16.8973" y="-8.43066" width="67.3" height="45.2693" filterUnits="userSpaceOnUse" color-interpolation-filters="sRGB">
<feFlood flood-opacity="0" result="BackgroundImageFix"/>
<feColorMatrix in="SourceAlpha" type="matrix" values="0 0 0 0 0 0 0 0 0 0 0 0 0 0 0 0 0 0 127 0" result="hardAlpha"/>
<feOffset dy="4"/>
<feGaussianBlur stdDeviation="10"/>
<feComposite in2="hardAlpha" operator="out"/>
<feColorMatrix type="matrix" values="0 0 0 0 0 0 0 0 0 0 0 0 0 0 0 0 0 0 0.05 0"/>
<feBlend mode="normal" in2="BackgroundImageFix" result="effect1_dropShadow_944_457"/>
<feBlend mode="normal" in="SourceGraphic" in2="effect1_dropShadow_944_457" result="shape"/>
</filter>
<linearGradient id="paint0_linear_944_457" x1="3.10266" y1="10.204" x2="30.4027" y2="10.204" gradientUnits="userSpaceOnUse">
<stop stop-color="#00BF58"/>
<stop offset="1" stop-color="#E3FF75"/>
</linearGradient>
<clipPath id="clip0_944_457">
<rect width="92" height="92" fill="white"/>
</clipPath>
</defs>
</svg>
