<svg width="91" height="91" viewBox="0 0 91 91" fill="none" xmlns="http://www.w3.org/2000/svg">
<g clip-path="url(#clip0_944_548)">
<g filter="url(#filter0_d_944_548)">
<path d="M90.0746 5.63253C89.4941 5.03632 88.6939 4.70213 87.8624 4.70684H3.13822C2.30667 4.70213 1.5065 5.03632 0.925983 5.63253C0.329776 6.21304 -0.0044137 7.01322 0.000293197 7.84477V73.7413C-0.0044137 74.5729 0.329776 75.373 0.925983 75.9536C1.5065 76.5498 2.30667 76.8839 3.13822 76.8792H86.2934C87.5417 76.8792 88.739 76.3833 89.6217 75.5006C90.5044 74.6179 91.0003 73.4207 91.0003 72.1723V7.84477C91.005 7.01322 90.6708 6.21304 90.0746 5.63253Z" fill="url(#paint0_linear_944_548)"/>
</g>
<g filter="url(#filter1_d_944_548)">
<path d="M91.0001 7.84481V72.1724C91.0001 73.4213 90.5027 74.6168 89.6194 75.4986L83.1552 69.0345V12.5517L90.0744 5.63257C90.6706 6.21309 91.0048 7.01326 91.0001 7.84481ZM7.84488 12.5517V69.0345L0.925739 75.9536C0.329532 75.3731 -0.00465784 74.5729 4.9056e-05 73.7414V7.84481C-0.00465784 7.01326 0.329532 6.21309 0.925739 5.63257L7.84488 12.5517Z" fill="url(#paint1_linear_944_548)"/>
</g>
<path d="M89.6194 75.4986C89.1831 75.9362 88.6647 76.2835 88.0939 76.5204C87.5231 76.7574 86.9112 76.8793 86.2932 76.8793H3.13802C2.30647 76.884 1.5063 76.5498 0.925781 75.9536L7.84492 69.0344H83.1553L89.6194 75.4986Z" fill="#10C45B"/>
<path d="M7.84485 12.5515H83.1552V69.0343H7.84485V12.5515Z" fill="#ECFFF1"/>
<path d="M83.1552 12.5515C83.1552 12.5515 7.84485 12.5515 7.84485 69.0343V12.5515H83.1552Z" fill="white"/>
<path d="M56.4828 23.5344H34.5173C34.1012 23.5344 33.7021 23.3691 33.4079 23.0749C33.1137 22.7806 32.9484 22.3816 32.9484 21.9654C32.9484 21.5493 33.1137 21.1503 33.4079 20.856C33.7021 20.5618 34.1012 20.3965 34.5173 20.3965H56.4828C56.899 20.3965 57.298 20.5618 57.5923 20.856C57.8865 21.1503 58.0518 21.5493 58.0518 21.9654C58.0518 22.3816 57.8865 22.7806 57.5923 23.0749C57.298 23.3691 56.899 23.5344 56.4828 23.5344Z" fill="#131C46"/>
<path d="M40.7931 58.0515H18.8276C18.4115 58.0515 18.0124 57.8862 17.7182 57.592C17.424 57.2977 17.2587 56.8987 17.2587 56.4825C17.2587 56.0664 17.424 55.6674 17.7182 55.3731C18.0124 55.0789 18.4115 54.9136 18.8276 54.9136H40.7931C41.2093 54.9136 41.6083 55.0789 41.9026 55.3731C42.1968 55.6674 42.3621 56.0664 42.3621 56.4825C42.3621 56.8987 42.1968 57.2977 41.9026 57.592C41.6083 57.8862 41.2093 58.0515 40.7931 58.0515Z" fill="#131C46"/>
<path d="M61.1897 31.3791H29.8104C29.3943 31.3791 28.9952 31.2138 28.701 30.9196C28.4068 30.6254 28.2415 30.2263 28.2415 29.8102C28.2415 29.3941 28.4068 28.995 28.701 28.7008C28.9952 28.4065 29.3943 28.2412 29.8104 28.2412H61.1897C61.6058 28.2412 62.0049 28.4065 62.2992 28.7008C62.5934 28.995 62.7587 29.3941 62.7587 29.8102C62.7587 30.2263 62.5934 30.6254 62.2992 30.9196C62.0049 31.2138 61.6058 31.3791 61.1897 31.3791Z" fill="#131C46"/>
<path d="M54.9139 63.386V83.7512C54.912 84.0199 54.9792 84.2847 55.109 84.52C55.2389 84.7554 55.427 84.9534 55.6554 85.0952C55.8837 85.2369 56.1447 85.3176 56.4132 85.3295C56.6817 85.3415 56.9488 85.2842 57.1889 85.1632L61.2682 83.1079C61.7138 82.8882 62.2347 82.8882 62.6802 83.1079L66.7595 85.1632C66.9996 85.2842 67.2667 85.3415 67.5352 85.3295C67.8037 85.3176 68.0647 85.2369 68.293 85.0952C68.5214 84.9534 68.7095 84.7554 68.8394 84.52C68.9692 84.2847 69.0364 84.0199 69.0345 83.7512V63.386H54.9139Z" fill="#DDFE74"/>
<path d="M40.7931 51.7757C36.9508 51.7757 33.1743 50.7841 29.8276 48.8982C26.4752 50.8017 22.6827 51.7938 18.8276 51.7757C18.4115 51.7757 18.0124 51.6104 17.7182 51.3162C17.424 51.0219 17.2587 50.6229 17.2587 50.2068C17.2587 49.7906 17.424 49.3916 17.7182 49.0973C18.0124 48.8031 18.4115 48.6378 18.8276 48.6378C21.6399 48.6503 24.4199 48.0388 26.9674 46.8476C26.1617 46.23 25.4907 45.4542 24.9957 44.5679C24.5006 43.6816 24.1918 42.7035 24.0884 41.6935C24.0884 40.7522 24.501 37.655 29.8104 37.655C35.1198 37.655 35.5324 40.7459 35.5324 41.6935C35.4295 42.7047 35.1212 43.6843 34.6264 44.5722C34.1316 45.46 33.4607 46.2375 32.6549 46.857C35.2034 48.0429 37.9823 48.6509 40.7931 48.6378C41.2093 48.6378 41.6083 48.8031 41.9026 49.0973C42.1968 49.3916 42.3621 49.7906 42.3621 50.2068C42.3621 50.6229 42.1968 51.0219 41.9026 51.3162C41.6083 51.6104 41.2093 51.7757 40.7931 51.7757ZM29.8104 40.793C28.618 40.793 27.2263 41.0283 27.2263 41.6935C27.2263 42.3588 27.9308 43.6987 29.7978 45.1359C31.4672 43.8587 32.3945 42.5235 32.3945 41.6935C32.3945 41.0283 31.0028 40.793 29.8104 40.793Z" fill="#131C46"/>
<path d="M76.8793 52.5602C76.8793 54.3692 73.5013 55.491 72.8486 57.0647C72.1724 58.6949 73.7414 61.872 72.5129 63.1005C71.2844 64.329 68.1072 62.76 66.4786 63.4347C64.905 64.0874 63.7832 67.4654 61.9741 67.4654C60.1651 67.4654 59.0433 64.0874 57.4696 63.4347C55.8395 62.7585 52.6623 64.3274 51.4338 63.0989C50.2053 61.8704 51.7743 58.6933 51.0996 57.0647C50.447 55.491 47.069 54.3692 47.069 52.5602C47.069 50.7512 50.447 49.6294 51.0996 48.0557C51.7759 46.4255 50.2069 43.2484 51.4354 42.0199C52.6639 40.7914 55.8411 42.3604 57.4696 41.6857C59.0386 41.033 60.1651 37.655 61.9741 37.655C63.7832 37.655 64.905 41.033 66.4786 41.6857C68.1088 42.3619 71.286 40.793 72.5145 42.0215C73.743 43.25 72.174 46.4271 72.8486 48.0557C73.5013 49.6294 76.8793 50.7512 76.8793 52.5602Z" fill="#3AD060"/>
<path d="M61.9742 58.0516C65.007 58.0516 67.4655 55.593 67.4655 52.5602C67.4655 49.5274 65.007 47.0688 61.9742 47.0688C58.9414 47.0688 56.4828 49.5274 56.4828 52.5602C56.4828 55.593 58.9414 58.0516 61.9742 58.0516Z" fill="#A1F19A"/>
</g>
<defs>
<filter id="filter0_d_944_548" x="-19.9998" y="-11.2932" width="131" height="112.173" filterUnits="userSpaceOnUse" color-interpolation-filters="sRGB">
<feFlood flood-opacity="0" result="BackgroundImageFix"/>
<feColorMatrix in="SourceAlpha" type="matrix" values="0 0 0 0 0 0 0 0 0 0 0 0 0 0 0 0 0 0 127 0" result="hardAlpha"/>
<feOffset dy="4"/>
<feGaussianBlur stdDeviation="10"/>
<feComposite in2="hardAlpha" operator="out"/>
<feColorMatrix type="matrix" values="0 0 0 0 0 0 0 0 0 0 0 0 0 0 0 0 0 0 0.05 0"/>
<feBlend mode="normal" in2="BackgroundImageFix" result="effect1_dropShadow_944_548"/>
<feBlend mode="normal" in="SourceGraphic" in2="effect1_dropShadow_944_548" result="shape"/>
</filter>
<filter id="filter1_d_944_548" x="-20" y="-10.3674" width="131" height="110.321" filterUnits="userSpaceOnUse" color-interpolation-filters="sRGB">
<feFlood flood-opacity="0" result="BackgroundImageFix"/>
<feColorMatrix in="SourceAlpha" type="matrix" values="0 0 0 0 0 0 0 0 0 0 0 0 0 0 0 0 0 0 127 0" result="hardAlpha"/>
<feOffset dy="4"/>
<feGaussianBlur stdDeviation="10"/>
<feComposite in2="hardAlpha" operator="out"/>
<feColorMatrix type="matrix" values="0 0 0 0 0 0 0 0 0 0 0 0 0 0 0 0 0 0 0.05 0"/>
<feBlend mode="normal" in2="BackgroundImageFix" result="effect1_dropShadow_944_548"/>
<feBlend mode="normal" in="SourceGraphic" in2="effect1_dropShadow_944_548" result="shape"/>
</filter>
<linearGradient id="paint0_linear_944_548" x1="0.000244141" y1="40.793" x2="91.0003" y2="40.793" gradientUnits="userSpaceOnUse">
<stop stop-color="#00BF58"/>
<stop offset="1" stop-color="#E3FF75"/>
</linearGradient>
<linearGradient id="paint1_linear_944_548" x1="0" y1="40.7931" x2="91.0001" y2="40.7931" gradientUnits="userSpaceOnUse">
<stop stop-color="#00BF58"/>
<stop offset="1" stop-color="#E3FF75"/>
</linearGradient>
<clipPath id="clip0_944_548">
<rect width="91" height="91" fill="white"/>
</clipPath>
</defs>
</svg>
