<svg width="76" height="33" viewBox="0 0 76 33" fill="none" xmlns="http://www.w3.org/2000/svg">
<circle cx="59.5" cy="16.5" r="16" transform="rotate(-90 59.5 16.5)" fill="white" stroke="#E8E8E8"/>
<path d="M65.3851 10.7217H62.9362V9.94551C62.9356 9.68585 62.8323 9.43698 62.6486 9.25337C62.465 9.06976 62.2162 8.96637 61.9565 8.96582H58.0443C57.7845 8.96614 57.5354 9.06943 57.3516 9.25306C57.1678 9.4367 57.0643 9.6857 57.0637 9.94551V10.7217H54.6149C54.3679 10.722 54.1312 10.8202 53.9566 10.9948C53.782 11.1694 53.6837 11.4061 53.6835 11.6531V12.6598C53.6838 12.9067 53.782 13.1434 53.9566 13.318C54.1312 13.4926 54.3679 13.5908 54.6149 13.5911H54.6271V23.7388C54.6274 24.0825 54.7641 24.412 55.0071 24.6551C55.2501 24.8981 55.5796 25.0349 55.9233 25.0353H64.0766C64.4203 25.0349 64.7498 24.8981 64.9928 24.6551C65.2358 24.412 65.3725 24.0825 65.3729 23.7388V13.5911H65.3851C65.632 13.5908 65.8687 13.4926 66.0432 13.318C66.2178 13.1434 66.316 12.9067 66.3163 12.6598V11.6531C66.3161 11.4062 66.2179 11.1694 66.0433 10.9948C65.8687 10.8202 65.632 10.722 65.3851 10.7217ZM57.6653 9.94551C57.6656 9.84517 57.7057 9.74905 57.7767 9.67818C57.8477 9.60731 57.9439 9.56747 58.0443 9.56738H61.9556C62.0558 9.5677 62.1518 9.60764 62.2227 9.67848C62.2935 9.74933 62.3335 9.84532 62.3338 9.94551V10.7217H57.6653V9.94551ZM64.7713 23.7388C64.7711 23.923 64.6979 24.0996 64.5676 24.2299C64.4374 24.3602 64.2608 24.4335 64.0766 24.4337H55.9233C55.7391 24.4335 55.5625 24.3602 55.4323 24.2299C55.3021 24.0996 55.2288 23.923 55.2286 23.7388V13.5911H64.7713V23.7388ZM65.7147 12.6598C65.7147 12.7472 65.6799 12.831 65.6181 12.8929C65.5563 12.9547 65.4725 12.9895 65.3851 12.9896H54.6149C54.5274 12.9895 54.4436 12.9547 54.3817 12.8929C54.3199 12.831 54.2851 12.7472 54.285 12.6598V11.6531C54.2851 11.5656 54.3199 11.4818 54.3817 11.42C54.4436 11.3581 54.5274 11.3233 54.6149 11.3233H65.3851C65.4725 11.3233 65.5563 11.3581 65.6181 11.42C65.6799 11.4818 65.7147 11.5657 65.7147 11.6531V12.6598Z" fill="#031136"/>
<path d="M60 22.4211C60.0395 22.4211 60.0787 22.4134 60.1152 22.3983C60.1517 22.3832 60.1848 22.361 60.2128 22.3331C60.2407 22.3051 60.2629 22.272 60.278 22.2355C60.2931 22.199 60.3008 22.1598 60.3008 22.1203V15.9043C60.3008 15.8245 60.2691 15.748 60.2127 15.6916C60.1563 15.6352 60.0798 15.6035 60 15.6035C59.9203 15.6035 59.8438 15.6352 59.7873 15.6916C59.7309 15.748 59.6993 15.8245 59.6993 15.9043V22.1203C59.6993 22.2001 59.7309 22.2766 59.7873 22.333C59.8438 22.3894 59.9203 22.4211 60 22.4211ZM62.6354 22.4211C62.7152 22.4211 62.7917 22.3894 62.8481 22.333C62.9045 22.2766 62.9362 22.2001 62.9362 22.1203V15.9043C62.9362 15.8245 62.9045 15.748 62.8481 15.6916C62.7917 15.6352 62.7152 15.6035 62.6354 15.6035C62.5556 15.6035 62.4791 15.6352 62.4227 15.6916C62.3663 15.748 62.3346 15.8245 62.3346 15.9043V22.1203C62.3346 22.2001 62.3663 22.2766 62.4227 22.333C62.4791 22.3894 62.5556 22.4211 62.6354 22.4211ZM57.3645 22.4211C57.4443 22.4211 57.5208 22.3894 57.5772 22.333C57.6336 22.2766 57.6653 22.2001 57.6653 22.1203V15.9043C57.6653 15.8245 57.6336 15.748 57.5772 15.6916C57.5208 15.6352 57.4443 15.6035 57.3645 15.6035C57.2847 15.6035 57.2082 15.6352 57.1518 15.6916C57.0954 15.748 57.0637 15.8245 57.0637 15.9043V22.1203C57.0637 22.2001 57.0954 22.2766 57.1518 22.333C57.2082 22.3894 57.2847 22.4211 57.3645 22.4211Z" fill="#031136"/>
<circle cx="16.5" cy="16.5" r="16" transform="rotate(-90 16.5 16.5)" fill="white" stroke="#E8E8E8"/>
<g clip-path="url(#clip0_944_219)">
<path d="M22.9374 7.67799C22.0302 6.77238 20.561 6.77238 19.6537 7.67799L18.8318 8.50447L10.0821 17.2495L10.0635 17.2682C10.059 17.2728 10.059 17.2775 10.0542 17.2775C10.0449 17.2915 10.031 17.3053 10.0218 17.3193C10.0218 17.3239 10.017 17.3239 10.017 17.3286C10.0077 17.3425 10.0033 17.3518 9.99377 17.3657C9.98931 17.3704 9.98931 17.3749 9.98462 17.3797C9.97997 17.3936 9.97532 17.4029 9.97053 17.4169C9.97053 17.4213 9.96606 17.4213 9.96606 17.4262L8.0247 23.2638C7.99679 23.3453 7.99243 23.4329 8.01214 23.5167C8.03186 23.6005 8.07483 23.677 8.13612 23.7374C8.22393 23.8242 8.34248 23.8726 8.46589 23.8723C8.51632 23.8714 8.5663 23.8635 8.6145 23.849L14.4477 21.903C14.4522 21.903 14.4522 21.903 14.457 21.8986C14.4717 21.8943 14.4857 21.8879 14.4987 21.8798C14.5022 21.8794 14.5055 21.8778 14.5081 21.8753C14.5219 21.866 14.5405 21.8566 14.5545 21.8473C14.5683 21.8381 14.5824 21.8242 14.5963 21.8149C14.601 21.8101 14.6055 21.8101 14.6055 21.8056C14.6103 21.8009 14.6196 21.7964 14.6242 21.787L24.1958 12.2153C25.1015 11.3081 25.1015 9.83896 24.1958 8.93185L22.9374 7.67799ZM14.2991 20.8116L11.0668 17.5794L19.1569 9.4893L22.3893 12.7215L14.2991 20.8116ZM10.6115 18.4386L13.4353 21.2623L9.19507 22.674L10.6115 18.4386ZM23.5411 11.5651L23.0488 12.0621L19.8163 8.82962L20.3135 8.33276C20.8572 7.78945 21.7386 7.78945 22.2825 8.33276L23.5456 9.59596C24.0854 10.1422 24.0833 11.0215 23.5411 11.5651Z" fill="#031136"/>
</g>
<defs>
<clipPath id="clip0_944_219">
<rect width="18" height="18" fill="white" transform="translate(8 7)"/>
</clipPath>
</defs>
</svg>
