<svg width="34" height="34" viewBox="0 0 34 34" fill="none" xmlns="http://www.w3.org/2000/svg">
<g clip-path="url(#clip0_1124_934)">
<path d="M6.0625 5.99363H22.2394C22.7269 8.21286 24.7088 9.87893 27.0723 9.87893C29.4358 9.87893 31.4177 8.21293 31.9052 5.99363H37.9375C38.5243 5.99363 39 5.51789 39 4.93113C39 4.34436 38.5243 3.86863 37.9375 3.86863H31.9047C31.4162 1.65053 29.4317 -0.0166016 27.0723 -0.0166016C24.7117 -0.0166016 22.7281 1.65026 22.2398 3.86863H6.0625C5.47573 3.86863 5 4.34436 5 4.93113C5 5.51789 5.47573 5.99363 6.0625 5.99363ZM24.2496 4.93392L24.2497 4.9225C24.2544 3.37078 25.5205 2.10846 27.0723 2.10846C28.6219 2.10846 29.8881 3.36905 29.8948 4.92004L29.895 4.93564C29.8926 6.49002 28.6273 7.75399 27.0723 7.75399C25.518 7.75399 24.2531 6.49128 24.2496 4.93784L24.2496 4.93392ZM37.9375 28.006H31.9047C31.4161 25.788 29.4317 24.1208 27.0723 24.1208C24.7117 24.1208 22.7281 25.7877 22.2398 28.006H6.0625C5.47573 28.006 5 28.4817 5 29.0685C5 29.6554 5.47573 30.131 6.0625 30.131H22.2394C22.7269 32.3503 24.7088 34.0163 27.0723 34.0163C29.4358 34.0163 31.4177 32.3503 31.9052 30.131H37.9375C38.5243 30.131 39 29.6554 39 29.0685C39 28.4817 38.5243 28.006 37.9375 28.006ZM27.0723 31.8913C25.518 31.8913 24.2531 30.6286 24.2496 29.0752L24.2496 29.0713L24.2497 29.0599C24.2544 27.5082 25.5205 26.2458 27.0723 26.2458C28.6219 26.2458 29.8881 27.5064 29.8948 29.0573L29.895 29.0729C29.8928 30.6275 28.6274 31.8913 27.0723 31.8913ZM37.9375 15.9374H21.7606C21.2731 13.7181 19.2912 12.0521 16.9277 12.0521C14.5642 12.0521 12.5823 13.7181 12.0948 15.9374H6.0625C5.47573 15.9374 5 16.4131 5 16.9999C5 17.5867 5.47573 18.0624 6.0625 18.0624H12.0953C12.5839 20.2804 14.5683 21.9476 16.9277 21.9476C19.2883 21.9476 21.2719 20.2807 21.7602 18.0624H37.9375C38.5243 18.0624 39 17.5867 39 16.9999C39 16.4131 38.5243 15.9374 37.9375 15.9374ZM19.7504 16.9971L19.7503 17.0085C19.7456 18.5602 18.4795 19.8225 16.9277 19.8225C15.3781 19.8225 14.1119 18.5619 14.1052 17.011L14.105 16.9955C14.1073 15.4409 15.3727 14.1771 16.9277 14.1771C18.482 14.1771 19.7469 15.4398 19.7504 16.9933L19.7504 16.9971Z" fill="black"/>
</g>
<defs>
<clipPath id="clip0_1124_934">
<rect width="34" height="34" fill="white"/>
</clipPath>
</defs>
</svg>
