<svg width="281" height="66" viewBox="0 0 281 66" fill="none" xmlns="http://www.w3.org/2000/svg">
<g filter="url(#filter0_d_1124_939)">
<rect x="58" y="16" width="26" height="26" rx="5" fill="url(#paint0_linear_1124_939)"/>
</g>
<rect x="41" y="8" width="1" height="42" fill="#D9D9D9"/>
<rect x="240" y="8" width="1" height="42" fill="#D9D9D9"/>
<path d="M17.5 29H26.5" stroke="#031136"/>
<path fill-rule="evenodd" clip-rule="evenodd" d="M259.5 28.5V24.5H258.5L258.5 28.5H254.5V29.5H258.5L258.5 33.5H259.5V29.5H263.5V28.5H259.5Z" fill="black"/>
<rect x="0.5" y="7.5" width="280" height="43" stroke="#D0D0D0"/>
<path d="M72.3026 23.5455V33H71.1577V24.7457H71.1023L68.794 26.2784V25.1151L71.1577 23.5455H72.3026Z" fill="white" fill-opacity="0.75"/>
<path d="M115.979 33V32.169L119.099 28.7528C119.466 28.3527 119.767 28.005 120.004 27.7095C120.241 27.411 120.417 27.1309 120.531 26.8693C120.647 26.6046 120.706 26.3277 120.706 26.0384C120.706 25.706 120.626 25.4182 120.466 25.1751C120.309 24.9319 120.094 24.7442 119.82 24.6119C119.546 24.4795 119.238 24.4134 118.896 24.4134C118.533 24.4134 118.216 24.4888 117.945 24.6396C117.678 24.7873 117.47 24.995 117.322 25.2628C117.177 25.5305 117.105 25.8445 117.105 26.2045H116.016C116.016 25.6506 116.143 25.1643 116.399 24.7457C116.654 24.3272 117.002 24.0009 117.442 23.767C117.885 23.5331 118.382 23.4162 118.933 23.4162C119.487 23.4162 119.978 23.5331 120.406 23.767C120.834 24.0009 121.169 24.3164 121.412 24.7134C121.655 25.1104 121.777 25.5521 121.777 26.0384C121.777 26.3861 121.714 26.7262 121.588 27.0586C121.465 27.3879 121.249 27.7557 120.941 28.1619C120.637 28.5651 120.214 29.0575 119.672 29.6392L117.548 31.9105V31.9844H121.943V33H115.979Z" fill="#121212" fill-opacity="0.75"/>
<path d="M167.173 33.1293C166.564 33.1293 166.021 33.0246 165.544 32.8153C165.07 32.6061 164.693 32.3152 164.413 31.9428C164.136 31.5674 163.985 31.1319 163.96 30.6364H165.124C165.148 30.9411 165.253 31.2042 165.438 31.4258C165.622 31.6443 165.864 31.8136 166.162 31.9336C166.461 32.0536 166.792 32.1136 167.155 32.1136C167.561 32.1136 167.921 32.0429 168.235 31.9013C168.549 31.7597 168.795 31.5627 168.974 31.3104C169.152 31.058 169.241 30.7656 169.241 30.4332C169.241 30.0855 169.155 29.7792 168.983 29.5146C168.811 29.2468 168.558 29.0375 168.226 28.8867C167.893 28.7359 167.487 28.6605 167.007 28.6605H166.25V27.6449H167.007C167.383 27.6449 167.712 27.5772 167.995 27.4418C168.281 27.3063 168.504 27.1155 168.664 26.8693C168.828 26.6231 168.909 26.3338 168.909 26.0014C168.909 25.6813 168.838 25.4028 168.697 25.1658C168.555 24.9289 168.355 24.7442 168.097 24.6119C167.841 24.4795 167.54 24.4134 167.192 24.4134C166.866 24.4134 166.558 24.4734 166.268 24.5934C165.982 24.7103 165.748 24.8812 165.567 25.1058C165.385 25.3274 165.287 25.5952 165.271 25.9091H164.163C164.182 25.4136 164.331 24.9796 164.611 24.6072C164.891 24.2318 165.257 23.9394 165.71 23.7301C166.165 23.5208 166.665 23.4162 167.21 23.4162C167.795 23.4162 168.297 23.5347 168.715 23.7717C169.134 24.0056 169.455 24.3149 169.68 24.6996C169.905 25.0843 170.017 25.4998 170.017 25.946C170.017 26.4785 169.877 26.9324 169.597 27.3079C169.32 27.6834 168.943 27.9434 168.466 28.0881V28.1619C169.063 28.2604 169.529 28.5143 169.865 28.9237C170.2 29.3299 170.368 29.8331 170.368 30.4332C170.368 30.9472 170.228 31.4089 169.948 31.8182C169.671 32.2244 169.292 32.5445 168.812 32.7784C168.332 33.0123 167.786 33.1293 167.173 33.1293Z" fill="#121212" fill-opacity="0.75"/>
<path d="M211.757 31.0611V30.1193L215.912 23.5455H216.595V25.0043H216.134L212.994 29.9716V30.0455H218.589V31.0611H211.757ZM216.207 33V30.7749V30.3363V23.5455H217.297V33H216.207Z" fill="#121212" fill-opacity="0.75"/>
<defs>
<filter id="filter0_d_1124_939" x="38" y="0" width="66" height="66" filterUnits="userSpaceOnUse" color-interpolation-filters="sRGB">
<feFlood flood-opacity="0" result="BackgroundImageFix"/>
<feColorMatrix in="SourceAlpha" type="matrix" values="0 0 0 0 0 0 0 0 0 0 0 0 0 0 0 0 0 0 127 0" result="hardAlpha"/>
<feOffset dy="4"/>
<feGaussianBlur stdDeviation="10"/>
<feComposite in2="hardAlpha" operator="out"/>
<feColorMatrix type="matrix" values="0 0 0 0 0 0 0 0 0 0 0 0 0 0 0 0 0 0 0.05 0"/>
<feBlend mode="normal" in2="BackgroundImageFix" result="effect1_dropShadow_1124_939"/>
<feBlend mode="normal" in="SourceGraphic" in2="effect1_dropShadow_1124_939" result="shape"/>
</filter>
<linearGradient id="paint0_linear_1124_939" x1="58" y1="29" x2="84" y2="29" gradientUnits="userSpaceOnUse">
<stop stop-color="#00BF58"/>
<stop offset="1" stop-color="#E3FF75"/>
</linearGradient>
</defs>
</svg>
