<svg width="117" height="18" viewBox="0 0 117 18" fill="none" xmlns="http://www.w3.org/2000/svg">
<path d="M11.362 13.734H4.669L3.519 17H0.782L6.509 0.991999H9.545L15.272 17H12.512L11.362 13.734ZM10.626 11.595L8.027 4.166L5.405 11.595H10.626ZM22.3841 14.884H27.7891V17H19.7621V1.015H22.3841V14.884ZM41.6188 13.734H34.9258L33.7758 17H31.0388L36.7658 0.991999H39.8018L45.5288 17H42.7688L41.6188 13.734ZM40.8828 11.595L38.2838 4.166L35.6618 11.595H40.8828ZM63.1519 17H60.5299L52.6409 5.063V17H50.0189V0.991999H52.6409L60.5299 12.906V0.991999H63.1519V17ZM67.7211 8.973C67.7211 7.409 68.0815 6.006 68.8021 4.764C69.5381 3.522 70.5271 2.556 71.7691 1.866C73.0265 1.16067 74.3988 0.807999 75.8861 0.807999C77.5881 0.807999 79.0985 1.22967 80.4171 2.073C81.7511 2.901 82.7171 4.08167 83.3151 5.615H80.1641C79.7501 4.77167 79.1751 4.143 78.4391 3.729C77.7031 3.315 76.8521 3.108 75.8861 3.108C74.8281 3.108 73.8851 3.34567 73.0571 3.821C72.2291 4.29633 71.5775 4.97867 71.1021 5.868C70.6421 6.75733 70.4121 7.79233 70.4121 8.973C70.4121 10.1537 70.6421 11.1887 71.1021 12.078C71.5775 12.9673 72.2291 13.6573 73.0571 14.148C73.8851 14.6233 74.8281 14.861 75.8861 14.861C76.8521 14.861 77.7031 14.654 78.4391 14.24C79.1751 13.826 79.7501 13.1973 80.1641 12.354H83.3151C82.7171 13.8873 81.7511 15.068 80.4171 15.896C79.0985 16.724 77.5881 17.138 75.8861 17.138C74.3835 17.138 73.0111 16.793 71.7691 16.103C70.5271 15.3977 69.5381 14.424 68.8021 13.182C68.0815 11.94 67.7211 10.537 67.7211 8.973ZM91.0062 3.131V7.823H96.5262V9.962H91.0062V14.861H97.2162V17H88.3842V0.991999H97.2162V3.131H91.0062ZM107.667 1.015C109.369 1.015 110.856 1.34467 112.129 2.004C113.417 2.648 114.406 3.58333 115.096 4.81C115.801 6.02133 116.154 7.43967 116.154 9.065C116.154 10.6903 115.801 12.101 115.096 13.297C114.406 14.493 113.417 15.413 112.129 16.057C110.856 16.6857 109.369 17 107.667 17H102.446V1.015H107.667ZM107.667 14.861C109.537 14.861 110.971 14.355 111.968 13.343C112.964 12.331 113.463 10.905 113.463 9.065C113.463 7.20967 112.964 5.76067 111.968 4.718C110.971 3.67533 109.537 3.154 107.667 3.154H105.068V14.861H107.667Z" fill="#031136"/>
</svg>
