<svg width="167" height="38" viewBox="0 0 167 38" fill="none" xmlns="http://www.w3.org/2000/svg">
<path d="M58.362 24.734H51.669L50.519 28H47.782L53.509 11.992H56.545L62.272 28H59.512L58.362 24.734ZM57.626 22.595L55.027 15.166L52.405 22.595H57.626ZM69.3841 25.884H74.7891V28H66.7621V12.015H69.3841V25.884ZM88.6188 24.734H81.9258L80.7758 28H78.0388L83.7658 11.992H86.8018L92.5288 28H89.7688L88.6188 24.734ZM87.8828 22.595L85.2838 15.166L82.6618 22.595H87.8828ZM110.152 28H107.53L99.6409 16.063V28H97.0189V11.992H99.6409L107.53 23.906V11.992H110.152V28ZM114.721 19.973C114.721 18.409 115.081 17.006 115.802 15.764C116.538 14.522 117.527 13.556 118.769 12.866C120.026 12.1607 121.399 11.808 122.886 11.808C124.588 11.808 126.098 12.2297 127.417 13.073C128.751 13.901 129.717 15.0817 130.315 16.615H127.164C126.75 15.7717 126.175 15.143 125.439 14.729C124.703 14.315 123.852 14.108 122.886 14.108C121.828 14.108 120.885 14.3457 120.057 14.821C119.229 15.2963 118.577 15.9787 118.102 16.868C117.642 17.7573 117.412 18.7923 117.412 19.973C117.412 21.1537 117.642 22.1887 118.102 23.078C118.577 23.9673 119.229 24.6573 120.057 25.148C120.885 25.6233 121.828 25.861 122.886 25.861C123.852 25.861 124.703 25.654 125.439 25.24C126.175 24.826 126.75 24.1973 127.164 23.354H130.315C129.717 24.8873 128.751 26.068 127.417 26.896C126.098 27.724 124.588 28.138 122.886 28.138C121.383 28.138 120.011 27.793 118.769 27.103C117.527 26.3977 116.538 25.424 115.802 24.182C115.081 22.94 114.721 21.537 114.721 19.973ZM138.006 14.131V18.823H143.526V20.962H138.006V25.861H144.216V28H135.384V11.992H144.216V14.131H138.006ZM154.667 12.015C156.369 12.015 157.856 12.3447 159.129 13.004C160.417 13.648 161.406 14.5833 162.096 15.81C162.801 17.0213 163.154 18.4397 163.154 20.065C163.154 21.6903 162.801 23.101 162.096 24.297C161.406 25.493 160.417 26.413 159.129 27.057C157.856 27.6857 156.369 28 154.667 28H149.446V12.015H154.667ZM154.667 25.861C156.537 25.861 157.971 25.355 158.968 24.343C159.964 23.331 160.463 21.905 160.463 20.065C160.463 18.2097 159.964 16.7607 158.968 15.718C157.971 14.6753 156.537 14.154 154.667 14.154H152.068V25.861H154.667Z" fill="black"/>
<g clip-path="url(#clip0_135_1867)">
<g filter="url(#filter0_d_135_1867)">
<path d="M11.1328 1H26.8672C32.4634 1 37 5.53661 37 11.1328V26.8672C37 32.4634 32.4634 37 26.8672 37H11.1328C5.53661 37 1 32.4634 1 26.8672V11.1328C1 5.53661 5.53661 1 11.1328 1Z" stroke="url(#paint0_linear_135_1867)" stroke-width="2" shape-rendering="crispEdges"/>
</g>
<g filter="url(#filter1_d_135_1867)">
<path d="M11.9454 19.7434C12.9226 17.978 15.4596 17.9745 16.4417 19.7372C16.8739 20.513 16.8753 21.4569 16.4453 22.2339L12.3592 29.6177C12.2044 29.8975 11.9099 30.0712 11.5901 30.0712H7.72041C7.05075 30.0712 6.62687 29.3525 6.9509 28.7664L11.9454 19.7434ZM31.0468 28.7664C31.3718 29.3519 30.9484 30.0712 30.2788 30.0712H26.4105C26.0907 30.0712 25.7962 29.8975 25.6414 29.6177L21.2417 21.6667L19.0894 17.7724L19.0003 17.6173L16.0615 12.3424C16.0553 12.3314 16.0552 12.318 16.0613 12.3069L16.2965 11.8817L18.2151 8.41639C18.3507 8.11934 18.6472 7.92877 18.9738 7.92877H19.0318C19.3554 7.92877 19.6488 8.11884 19.7811 8.41416L21.7011 11.8817L31.0468 28.7664Z" fill="url(#paint1_linear_135_1867)"/>
</g>
</g>
<defs>
<filter id="filter0_d_135_1867" x="-20" y="-16" width="78" height="78" filterUnits="userSpaceOnUse" color-interpolation-filters="sRGB">
<feFlood flood-opacity="0" result="BackgroundImageFix"/>
<feColorMatrix in="SourceAlpha" type="matrix" values="0 0 0 0 0 0 0 0 0 0 0 0 0 0 0 0 0 0 127 0" result="hardAlpha"/>
<feOffset dy="4"/>
<feGaussianBlur stdDeviation="10"/>
<feComposite in2="hardAlpha" operator="out"/>
<feColorMatrix type="matrix" values="0 0 0 0 0 0 0 0 0 0 0 0 0 0 0 0 0 0 0.05 0"/>
<feBlend mode="normal" in2="BackgroundImageFix" result="effect1_dropShadow_135_1867"/>
<feBlend mode="normal" in="SourceGraphic" in2="effect1_dropShadow_135_1867" result="shape"/>
</filter>
<filter id="filter1_d_135_1867" x="-13.1602" y="-8.07123" width="64.3184" height="62.1424" filterUnits="userSpaceOnUse" color-interpolation-filters="sRGB">
<feFlood flood-opacity="0" result="BackgroundImageFix"/>
<feColorMatrix in="SourceAlpha" type="matrix" values="0 0 0 0 0 0 0 0 0 0 0 0 0 0 0 0 0 0 127 0" result="hardAlpha"/>
<feOffset dy="4"/>
<feGaussianBlur stdDeviation="10"/>
<feComposite in2="hardAlpha" operator="out"/>
<feColorMatrix type="matrix" values="0 0 0 0 0 0 0 0 0 0 0 0 0 0 0 0 0 0 0.05 0"/>
<feBlend mode="normal" in2="BackgroundImageFix" result="effect1_dropShadow_135_1867"/>
<feBlend mode="normal" in="SourceGraphic" in2="effect1_dropShadow_135_1867" result="shape"/>
</filter>
<linearGradient id="paint0_linear_135_1867" x1="19" y1="0" x2="19" y2="38" gradientUnits="userSpaceOnUse">
<stop stop-color="#09C25A"/>
<stop offset="1" stop-color="#E0FE75"/>
</linearGradient>
<linearGradient id="paint1_linear_135_1867" x1="6.22949" y1="19" x2="31.7711" y2="19" gradientUnits="userSpaceOnUse">
<stop stop-color="#00BF58"/>
<stop offset="1" stop-color="#E3FF75"/>
</linearGradient>
<clipPath id="clip0_135_1867">
<rect width="38" height="38" fill="white"/>
</clipPath>
</defs>
</svg>
