<svg width="34" height="34" viewBox="0 0 34 34" fill="none" xmlns="http://www.w3.org/2000/svg">
<path fill-rule="evenodd" clip-rule="evenodd" d="M23.4762 22.73V24.124C23.4932 25.5519 25.6691 25.5349 25.6691 24.09V22.73C24.9552 22.951 24.1902 22.951 23.4762 22.73ZM16.9994 15.1992C16.3704 15.1992 15.7754 15.1142 15.1974 14.9442L16.6254 17.2392C16.8464 17.6132 17.2034 17.5282 17.4584 17.1032L18.8013 14.9442C18.2234 15.1142 17.6284 15.1992 16.9994 15.1992ZM13.9225 14.4172C11.9675 13.3293 10.6586 11.2383 10.6586 8.8584C10.6586 5.3565 13.4975 2.51758 16.9994 2.51758C20.5013 2.51758 23.3402 5.3565 23.3402 8.8584C23.3402 11.2383 22.0143 13.3293 20.0593 14.4172L18.1384 17.5282C17.5774 18.4291 16.5234 18.5821 15.9454 17.6641L13.9225 14.4172ZM16.9994 3.29956C13.9395 3.29956 11.4406 5.79849 11.4406 8.8584C11.4406 11.6973 13.4975 13.9753 16.2854 14.3662C19.4983 14.7742 22.5582 12.2923 22.5582 8.8584C22.5582 5.79849 20.0593 3.29956 16.9994 3.29956ZM14.7895 11.5443C13.8715 11.5443 13.5655 10.6433 13.1575 9.96337C12.3925 8.6374 14.2965 7.36244 15.2314 8.58641L19.1243 6.34247C20.0763 5.78149 21.2493 6.68246 20.9603 7.73643C20.8753 8.05942 20.6713 8.33141 20.3823 8.50141L15.4184 11.3743C15.2144 11.4763 15.0105 11.5443 14.7895 11.5443ZM14.2455 8.8924C13.9055 8.8924 13.6845 9.28339 13.8545 9.57238L14.3985 10.5244C14.5175 10.7453 14.8065 10.8133 15.0105 10.6943L19.9743 7.82143C20.5013 7.51544 20.0423 6.73346 19.5153 7.02245L15.2994 9.47038C14.7555 9.77637 14.7555 8.8924 14.2455 8.8924ZM15.9114 31.4848H2.94079C2.7198 31.4848 2.5498 31.3148 2.5498 31.0938V27.0819C2.5498 24.651 4.52175 22.679 6.95268 22.679H7.53066V22.373C6.44269 21.727 5.71171 20.5371 5.71171 19.1771V15.7772C5.71171 14.5192 7.24167 13.9583 8.09165 14.8082C8.32964 14.5532 8.68663 14.4002 9.06062 14.4002H11.7635C12.5285 14.4002 13.1405 15.0122 13.1405 15.7772V19.1771C13.1405 20.5371 12.4095 21.727 11.3216 22.373V22.679H11.8995C14.3305 22.679 16.3024 24.651 16.3024 27.0819V31.0938C16.3024 31.3148 16.1324 31.4848 15.9114 31.4848ZM3.33178 30.7028H5.28673V27.6259C5.28673 27.0989 6.0687 27.0989 6.0687 27.6259V30.7028H12.7665V27.6259C12.7665 27.0989 13.5655 27.0989 13.5655 27.6259V30.7028H15.5204V27.0819C15.5204 25.0929 13.8885 23.461 11.8995 23.461H11.3216V24.107C11.3216 25.8239 9.24761 26.5889 8.09165 25.4329C7.49666 24.8549 7.53066 24.226 7.53066 23.461H6.95268C4.96374 23.461 3.33178 25.0929 3.33178 27.0819V30.7028ZM9.33261 22.101C10.8796 22.135 12.3415 20.8941 12.3415 19.1771V17.1542H6.49369V19.1771C6.49369 20.7581 7.78566 22.067 9.33261 22.101ZM8.32964 22.73V24.124C8.34664 25.5519 10.5226 25.5349 10.5226 24.107V22.73C9.8256 22.951 9.02662 22.951 8.32964 22.73ZM8.48264 15.7772V16.3552H12.3415C12.3415 15.8962 12.4435 15.1992 11.7635 15.1992H9.06062C8.73763 15.1992 8.48264 15.4542 8.48264 15.7772ZM7.68366 15.7772C7.68366 15.0122 6.49369 15.0122 6.49369 15.7772V16.3552H7.68366V15.7772ZM31.058 31.4848H18.0874C17.8664 31.4848 17.6964 31.3148 17.6964 31.0938V27.0819C17.6964 24.651 19.6683 22.679 22.0992 22.679H22.6772V22.373C21.5893 21.727 20.8583 20.5371 20.8583 19.1771V15.7772C20.8583 14.5192 22.4052 13.9583 23.2382 14.8082C23.4762 14.5532 23.8332 14.4002 24.2072 14.4002H26.9101C27.6751 14.4002 28.2871 15.0122 28.2871 15.7772V19.1771C28.2871 20.5371 27.5561 21.727 26.4681 22.373V22.679H27.0461C29.477 22.679 31.449 24.651 31.449 27.0819V31.0938C31.449 31.3148 31.279 31.4848 31.058 31.4848ZM18.4784 30.7028H20.4333V27.6259C20.4333 27.0989 21.2153 27.0989 21.2153 27.6259V30.7028H27.9301V27.6259C27.9301 27.0989 28.7121 27.0989 28.7121 27.6259V30.7028H30.667V27.0819C30.667 25.0929 29.0351 23.461 27.0461 23.461H26.4681V24.107C26.4681 25.1439 25.6181 25.9939 24.5812 25.9939C23.5272 25.9939 22.6772 25.1439 22.6772 24.09V23.461H22.0992C20.1103 23.461 18.4784 25.0929 18.4784 27.0819V30.7028ZM24.4112 22.101C25.9921 22.186 27.5051 20.9281 27.5051 19.1771V17.1542H21.6573V19.1771C21.6573 20.7241 22.8812 22.016 24.4112 22.101ZM21.6573 16.3552H22.8302C22.8302 15.8792 22.9492 15.1992 22.2352 15.1992C21.5553 15.1992 21.6573 15.8962 21.6573 16.3552ZM23.6292 16.3552H27.5051C27.5051 15.8962 27.5901 15.1992 26.9271 15.1992H24.2072C23.5442 15.1992 23.6292 15.8962 23.6292 16.3552Z" fill="#1B3764"/>
</svg>
