<svg width="104" height="104" viewBox="0 0 104 104" fill="none" xmlns="http://www.w3.org/2000/svg">
<circle cx="60" cy="56" r="32" fill="#E4EEFC"/>
<g filter="url(#filter0_d_135_1750)">
<circle cx="52" cy="48" r="31" stroke="url(#paint0_linear_135_1750)" stroke-width="2" shape-rendering="crispEdges"/>
</g>
<path d="M60.8688 52.1898L52.936 53.5694L50.6828 51.3162C50.608 51.241 50.5064 51.199 50.4 51.199H46.4H44.8H40V51.999H44.4V56.799H40V57.599H44.8H46.4H47.5056L51.782 59.7374C51.9668 59.8298 52.1672 59.8762 52.3668 59.8762C52.5944 59.8762 52.8216 59.8166 53.0252 59.6978L61.7516 54.607C62.1516 54.3738 62.4 53.9414 62.4 53.4782C62.4 53.0914 62.23 52.7266 61.934 52.4774C61.6384 52.2278 61.2484 52.1238 60.8688 52.1898ZM46 56.799H45.2V51.999H46V56.799ZM61.3484 53.9158L52.6224 59.0066C52.4744 59.093 52.2944 59.0986 52.14 59.0218L47.7792 56.8414C47.7236 56.8134 47.662 56.799 47.6 56.799H46.8V51.999H50.2344L53.386 55.1506C53.522 55.2866 53.6 55.475 53.6 55.6678C53.6 56.071 53.272 56.399 52.8688 56.399C52.6764 56.399 52.4876 56.321 52.3516 56.185L50.2828 54.1162L49.7172 54.6818L51.786 56.7506C52.0752 57.0398 52.4596 57.199 52.8688 57.199C53.7128 57.199 54.4 56.5118 54.4 55.6678C54.4 55.259 54.2408 54.8742 53.9516 54.585L53.6276 54.261L61.0052 52.9778C61.154 52.951 61.304 52.9926 61.4188 53.0894C61.534 53.1862 61.6 53.3278 61.6 53.4778C61.6 53.6574 61.5036 53.8254 61.3484 53.9158Z" fill="#1B3764"/>
<path d="M55.1996 51.999C58.1524 51.999 60.5728 49.7002 60.7792 46.799H60.7996V45.199V44.799V43.599V43.199V41.599C60.7996 38.511 58.2876 35.999 55.1996 35.999C52.1116 35.999 49.5996 38.511 49.5996 41.599V43.199V43.599V44.799V45.199V46.799H49.62C49.8264 49.7002 52.2468 51.999 55.1996 51.999ZM55.1996 39.999C57.2168 39.999 58.944 41.2514 59.6532 43.0178C58.6296 41.6726 57.0168 40.799 55.1996 40.799C53.3824 40.799 51.7696 41.6726 50.746 43.0178C51.4552 41.2514 53.1824 39.999 55.1996 39.999ZM50.746 41.4178C51.4552 39.6514 53.1824 38.399 55.1996 38.399C57.2168 38.399 58.944 39.6514 59.6532 41.4178C58.6296 40.0726 57.0168 39.199 55.1996 39.199C53.3824 39.199 51.7696 40.0726 50.746 41.4178ZM55.1996 36.799C57.2168 36.799 58.944 38.0514 59.6532 39.8178C58.6296 38.4726 57.0168 37.599 55.1996 37.599C53.3824 37.599 51.7696 38.4726 50.746 39.8178C51.4552 38.0514 53.1824 36.799 55.1996 36.799ZM55.1996 41.599C57.8464 41.599 59.9996 43.7522 59.9996 46.399C59.9996 49.0458 57.8464 51.199 55.1996 51.199C52.5528 51.199 50.3996 49.0458 50.3996 46.399C50.3996 43.7522 52.5528 41.599 55.1996 41.599Z" fill="#1B3764"/>
<path d="M55.2002 50.3994C57.4058 50.3994 59.2002 48.605 59.2002 46.3994C59.2002 44.1938 57.4058 42.3994 55.2002 42.3994C52.9946 42.3994 51.2002 44.1938 51.2002 46.3994C51.2002 48.605 52.9946 50.3994 55.2002 50.3994ZM55.2002 43.1994C56.9646 43.1994 58.4002 44.635 58.4002 46.3994C58.4002 48.1638 56.9646 49.5994 55.2002 49.5994C53.4358 49.5994 52.0002 48.1638 52.0002 46.3994C52.0002 44.635 53.4358 43.1994 55.2002 43.1994Z" fill="#1B3764"/>
<path d="M55.2 47.599C54.9792 47.599 54.8 47.4198 54.8 47.199H54C54 47.7198 54.3356 48.1598 54.8 48.3254V48.799H55.6V48.3254C56.0644 48.1598 56.4 47.7198 56.4 47.199C56.4 46.5374 55.8616 45.999 55.2 45.999C54.9792 45.999 54.8 45.8198 54.8 45.599C54.8 45.3782 54.9792 45.199 55.2 45.199C55.4208 45.199 55.6 45.3782 55.6 45.599H56.4C56.4 45.0782 56.0644 44.6382 55.6 44.4726V43.999H54.8V44.4726C54.3356 44.6382 54 45.0782 54 45.599C54 46.2606 54.5384 46.799 55.2 46.799C55.4208 46.799 55.6 46.9782 55.6 47.199C55.6 47.4198 55.4208 47.599 55.2 47.599Z" fill="#1B3764"/>
<path d="M45.5996 49.199C46.2612 49.199 46.7996 49.7374 46.7996 50.399H47.5996C47.5996 49.7374 48.138 49.199 48.7996 49.199V48.399C48.138 48.399 47.5996 47.8606 47.5996 47.199H46.7996C46.7996 47.8606 46.2612 48.399 45.5996 48.399V49.199ZM47.1996 48.3866C47.3164 48.5438 47.4548 48.6822 47.612 48.799C47.4548 48.9158 47.3164 49.0542 47.1996 49.2114C47.0828 49.0542 46.9444 48.9158 46.7872 48.799C46.9444 48.6822 47.0828 48.5438 47.1996 48.3866Z" fill="#1B3764"/>
<path d="M62.7998 35.999H61.9998C61.9998 36.6606 61.4614 37.199 60.7998 37.199V37.999C61.4614 37.999 61.9998 38.5374 61.9998 39.199H62.7998C62.7998 38.5374 63.3382 37.999 63.9998 37.999V37.199C63.3382 37.199 62.7998 36.6606 62.7998 35.999ZM62.3998 38.0114C62.283 37.8542 62.1446 37.7158 61.9874 37.599C62.1446 37.4822 62.283 37.3438 62.3998 37.1866C62.5166 37.3438 62.655 37.4822 62.8122 37.599C62.655 37.7158 62.5166 37.8542 62.3998 38.0114Z" fill="#1B3764"/>
<path d="M60.4004 56.7991H59.6004C59.6004 57.4607 59.062 57.9991 58.4004 57.9991V58.7991C59.062 58.7991 59.6004 59.3375 59.6004 59.9991H60.4004C60.4004 59.3375 60.9388 58.7991 61.6004 58.7991V57.9991C60.9388 57.9991 60.4004 57.4607 60.4004 56.7991ZM60.0004 58.8115C59.8836 58.6543 59.7452 58.5159 59.588 58.3991C59.7452 58.2823 59.8836 58.1439 60.0004 57.9867C60.1172 58.1439 60.2556 58.2823 60.4128 58.3991C60.2556 58.5159 60.1172 58.6543 60.0004 58.8115Z" fill="#1B3764"/>
<path d="M41.2 45.9991H42C42 45.3375 42.5384 44.7991 43.2 44.7991V43.9991C42.5384 43.9991 42 43.4607 42 42.7991H41.2C41.2 43.4607 40.6616 43.9991 40 43.9991V44.7991C40.6616 44.7991 41.2 45.3375 41.2 45.9991ZM41.6 43.9867C41.7168 44.1439 41.8552 44.2823 42.0124 44.3991C41.8552 44.5159 41.7168 44.6543 41.6 44.8115C41.4832 44.6543 41.3448 44.5159 41.1876 44.3991C41.3448 44.2823 41.4832 44.1439 41.6 43.9867Z" fill="#1B3764"/>
<path d="M47.2002 35.999H46.4002C46.4002 36.6606 45.8618 37.199 45.2002 37.199V37.999C45.8618 37.999 46.4002 38.5374 46.4002 39.199H47.2002C47.2002 38.5374 47.7386 37.999 48.4002 37.999V37.199C47.7386 37.199 47.2002 36.6606 47.2002 35.999ZM46.8002 38.0114C46.6834 37.8542 46.545 37.7158 46.3878 37.599C46.545 37.4822 46.6834 37.3438 46.8002 37.1866C46.917 37.3438 47.0554 37.4822 47.2126 37.599C47.0554 37.7158 46.917 37.8542 46.8002 38.0114Z" fill="#1B3764"/>
<path d="M46.3996 41.5986V42.3986H45.5996V43.1986H46.3996V43.9986H47.1996V43.1986H47.9996V42.3986H47.1996V41.5986H46.3996Z" fill="#1B3764"/>
<path d="M63.1996 48.3994H62.3996V49.1994H61.5996V49.9994H62.3996V50.7994H63.1996V49.9994H63.9996V49.1994H63.1996V48.3994Z" fill="#1B3764"/>
<defs>
<filter id="filter0_d_135_1750" x="0" y="0" width="104" height="104" filterUnits="userSpaceOnUse" color-interpolation-filters="sRGB">
<feFlood flood-opacity="0" result="BackgroundImageFix"/>
<feColorMatrix in="SourceAlpha" type="matrix" values="0 0 0 0 0 0 0 0 0 0 0 0 0 0 0 0 0 0 127 0" result="hardAlpha"/>
<feOffset dy="4"/>
<feGaussianBlur stdDeviation="10"/>
<feComposite in2="hardAlpha" operator="out"/>
<feColorMatrix type="matrix" values="0 0 0 0 0 0 0 0 0 0 0 0 0 0 0 0 0 0 0.05 0"/>
<feBlend mode="normal" in2="BackgroundImageFix" result="effect1_dropShadow_135_1750"/>
<feBlend mode="normal" in="SourceGraphic" in2="effect1_dropShadow_135_1750" result="shape"/>
</filter>
<linearGradient id="paint0_linear_135_1750" x1="52" y1="16" x2="52" y2="80" gradientUnits="userSpaceOnUse">
<stop stop-color="#09C25A"/>
<stop offset="1" stop-color="#E0FE75"/>
</linearGradient>
</defs>
</svg>
