<svg width="104" height="77" viewBox="0 0 104 77" fill="none" xmlns="http://www.w3.org/2000/svg">
<g filter="url(#filter0_d_135_1767)">
<rect x="20.5" y="17.5002" width="63" height="36" rx="4.5" stroke="#28514F" shape-rendering="crispEdges"/>
</g>
<path d="M64.6003 34.8894L57.0393 27.3002C56.8359 27.1052 56.5642 26.9975 56.2824 27.0003C56.0006 27.0031 55.731 27.1161 55.5315 27.3151C55.3319 27.5141 55.2182 27.7833 55.2147 28.0651C55.2112 28.3469 55.3181 28.6189 55.5126 28.8229L61.1954 34.5259H40.1444C39.9975 34.5169 39.8503 34.5381 39.7119 34.5881C39.5735 34.6381 39.4468 34.7159 39.3395 34.8168C39.2323 34.9176 39.1469 35.0393 39.0885 35.1744C39.0301 35.3095 39 35.4551 39 35.6023C39 35.7495 39.0301 35.8951 39.0885 36.0302C39.1469 36.1653 39.2323 36.287 39.3395 36.3878C39.4468 36.4886 39.5735 36.5665 39.7119 36.6165C39.8503 36.6665 39.9975 36.6877 40.1444 36.6787H61.2802L55.5166 42.3776C55.407 42.4751 55.3184 42.5939 55.2562 42.7268C55.1941 42.8597 55.1597 43.0039 55.1552 43.1505C55.1507 43.2972 55.1762 43.4432 55.2301 43.5796C55.2839 43.7161 55.3651 43.8401 55.4685 43.9441C55.572 44.0482 55.6956 44.13 55.8318 44.1846C55.9679 44.2392 56.1138 44.2654 56.2605 44.2617C56.4071 44.258 56.5515 44.2243 56.6847 44.1629C56.818 44.1015 56.9372 44.0135 57.0353 43.9044L64.5962 36.4161C64.6966 36.316 64.7762 36.197 64.8306 36.066C64.8849 35.935 64.9129 35.7946 64.9129 35.6528C64.9129 35.511 64.8849 35.3705 64.8306 35.2395C64.7762 35.1086 64.6966 34.9896 64.5962 34.8894H64.6003Z" fill="#28514F"/>
<defs>
<filter id="filter0_d_135_1767" x="0.537901" y="0.222573" width="102.924" height="75.9242" filterUnits="userSpaceOnUse" color-interpolation-filters="sRGB">
<feFlood flood-opacity="0" result="BackgroundImageFix"/>
<feColorMatrix in="SourceAlpha" type="matrix" values="0 0 0 0 0 0 0 0 0 0 0 0 0 0 0 0 0 0 127 0" result="hardAlpha"/>
<feOffset dy="2.68443"/>
<feGaussianBlur stdDeviation="9.73105"/>
<feComposite in2="hardAlpha" operator="out"/>
<feColorMatrix type="matrix" values="0 0 0 0 0 0 0 0 0 0 0 0 0 0 0 0 0 0 0.05 0"/>
<feBlend mode="normal" in2="BackgroundImageFix" result="effect1_dropShadow_135_1767"/>
<feBlend mode="normal" in="SourceGraphic" in2="effect1_dropShadow_135_1767" result="shape"/>
</filter>
</defs>
</svg>
