<svg width="134" height="48" viewBox="0 0 134 48" fill="none" xmlns="http://www.w3.org/2000/svg">
<g clip-path="url(#clip0_135_1509)">
<path d="M14.8352 6H0.200195V41L14.8352 6Z" fill="#404145"/>
<path d="M25.1328 6H39.7487V41L25.1328 6Z" fill="#404145"/>
<path d="M19.9834 18.8999L29.2983 41.0001H23.1869L20.4029 33.9639H13.5859L19.9834 18.8999Z" fill="#404145"/>
<path d="M63.6238 28.2579L65.3495 33.2061C65.4067 33.3301 65.4925 33.3873 65.645 33.3873H68.9629C69.1441 33.3873 69.1727 33.3015 69.1441 33.1203L62.289 14.0806C62.2604 13.928 62.2318 13.8994 62.0792 13.8994H57.9605C57.8461 13.8994 57.7793 13.9852 57.7793 14.1092C57.7221 15.1103 57.6363 15.4154 57.5123 15.7109L51.4009 33.0917C51.3723 33.3015 51.4391 33.3873 51.6107 33.3873H54.5758C54.757 33.3873 54.8428 33.3301 54.9095 33.1489L56.5399 28.2579H63.6238ZM57.4838 25.0258C58.38 22.3181 59.5622 18.8477 60.0389 16.8645H60.0675C60.6586 18.943 62.0506 23.0618 62.6799 25.0258H57.4838Z" fill="#404145"/>
<path d="M77.9564 33.6828C79.7393 33.6828 81.6366 33.3587 83.5625 32.5292C83.7151 32.472 83.7437 32.4052 83.7437 32.2622C83.6864 31.7283 83.6197 30.956 83.6197 30.3649V12.4407C83.6197 12.3262 83.6197 12.269 83.4767 12.269H80.2446C80.1207 12.269 80.0635 12.3262 80.0635 12.4788V18.5521C79.5581 18.4949 79.2054 18.4663 78.7859 18.4663C73.5707 18.4663 70.3672 21.9081 70.3672 26.208C70.3672 31.1944 73.6565 33.6828 77.9564 33.6828ZM80.0635 30.3649C79.5295 30.5365 78.9384 30.6033 78.3378 30.6033C75.9733 30.6033 74.0379 29.2685 74.0379 26.0269C74.0379 23.1571 76.0305 21.46 78.6715 21.46C79.2054 21.46 79.6726 21.5172 80.0635 21.6698V30.3649Z" fill="#404145"/>
<path d="M94.0555 18.4663C89.603 18.4663 86.8477 21.8795 86.8477 26.0937C86.8477 29.8597 89.0405 33.6829 93.9888 33.6829C98.1743 33.6829 101.111 30.6033 101.111 25.9983C101.111 21.9368 98.6224 18.4663 94.0555 18.4663ZM93.8743 21.46C96.3914 21.46 97.4592 23.6243 97.4592 26.0937C97.4592 29.1446 95.8861 30.6605 94.0555 30.6605C91.7959 30.6605 90.4611 28.7632 90.4611 26.0269C90.4611 23.2143 91.8817 21.46 93.8743 21.46Z" fill="#404145"/>
<path d="M104.452 12.269C104.328 12.269 104.242 12.3262 104.242 12.4788V32.7675C104.242 32.8534 104.328 33.0059 104.452 33.0345C105.873 33.4731 107.36 33.6828 108.895 33.6828C113.29 33.6828 117.561 30.956 117.561 25.4644C117.561 21.4886 114.835 18.4663 110.563 18.4663C109.581 18.4663 108.666 18.6188 107.865 18.8858L107.827 12.5074C107.827 12.2976 107.77 12.269 107.56 12.269H104.452ZM113.91 25.8267C113.91 29.1159 111.66 30.6605 109.229 30.6605C108.723 30.6605 108.275 30.6319 107.865 30.5079V21.8509C108.332 21.6698 108.895 21.5172 109.934 21.5172C112.279 21.5172 113.91 23.0045 113.91 25.8267Z" fill="#404145"/>
<path d="M129.623 26.8945C131.073 26.8945 132.264 26.8659 132.674 26.7706C132.827 26.742 132.884 26.6848 132.913 26.5608C132.999 26.2367 133.037 25.5597 133.037 24.7303C133.037 21.9082 131.34 18.4663 126.954 18.4663C122.473 18.4663 119.984 22.1179 119.984 26.2367C119.984 29.8883 121.91 33.6829 127.307 33.6829C129.328 33.6829 130.634 33.3587 131.759 32.8248C131.873 32.7676 131.931 32.6722 131.931 32.5006V30.0313C131.931 29.8883 131.845 29.8597 131.759 29.9169C130.634 30.3936 129.414 30.6319 128.079 30.6319C125.057 30.6319 123.684 28.9635 123.598 26.8945H129.623ZM123.598 24.3394C123.836 22.8902 124.751 21.317 126.801 21.317C129.061 21.317 129.652 23.2143 129.652 24.0724C129.652 24.101 129.652 24.225 129.652 24.3108C129.528 24.3394 129.147 24.3394 128.022 24.3394H123.598Z" fill="#404145"/>
</g>
<defs>
<clipPath id="clip0_135_1509">
<rect width="133" height="48" fill="white" transform="translate(0.200195)"/>
</clipPath>
</defs>
</svg>
