<svg width="16" height="16" viewBox="0 0 16 16" fill="none" xmlns="http://www.w3.org/2000/svg">
<g clip-path="url(#clip0_1003_1929)">
<path d="M16 1.09609C15.9997 0.841736 15.8985 0.597873 15.7187 0.418015C15.5388 0.238156 15.2949 0.136992 15.0406 0.136719H10.8404C10.587 0.13701 10.344 0.237437 10.1643 0.416115C9.98467 0.594794 9.88291 0.837241 9.88122 1.09063C8.77647 1.07813 7.83747 0.993 7.34181 0.91875C3.97759 0.310531 2.01634 0.479438 1.17022 1.45C0.774342 1.90416 0.649967 2.49688 0.798342 3.21606C0.428435 3.45591 0.172217 3.79322 0.0613416 4.19519C-0.0649084 4.65288 0.0113416 5.15691 0.269029 5.62153C0.0800944 5.94491 -0.0127408 6.31545 0.00140623 6.6897C0.0155532 7.06396 0.136096 7.42643 0.348904 7.73463C0.237068 7.97027 0.192987 8.23239 0.221592 8.49166C0.278248 9.00841 0.604529 9.49775 1.1914 9.94616C1.21093 9.96107 1.23153 9.97452 1.25303 9.98641C1.60347 10.1802 2.31781 10.4148 4.47597 10.2671C4.46619 10.3861 4.44098 10.5034 4.40097 10.616C3.86769 11.4675 3.5999 12.6382 3.58275 14.1913C3.57888 14.6279 3.74748 15.0483 4.05189 15.3613C4.3563 15.6742 4.77191 15.8543 5.2084 15.8625C5.23965 15.863 5.27065 15.8633 5.3014 15.8633C5.47063 15.8637 5.63976 15.8553 5.80812 15.8383C5.91355 15.8276 6.01566 15.7953 6.10809 15.7434C6.20052 15.6916 6.28131 15.6213 6.34544 15.5369C6.40957 15.4526 6.45568 15.3559 6.4809 15.253C6.50611 15.15 6.5099 15.043 6.49203 14.9386C6.22237 13.3463 7.92281 11.1553 9.04228 9.76122C9.31697 9.83249 9.59786 9.87725 9.88109 9.89488V10.1484C9.88136 10.4028 9.98252 10.6466 10.1624 10.8265C10.3422 11.0064 10.5861 11.1075 10.8405 11.1078H15.0406C15.295 11.1075 15.5388 11.0064 15.7187 10.8265C15.8985 10.6466 15.9997 10.4028 16 10.1484V1.09609ZM9.0825 8.71713C8.98135 8.67088 8.86768 8.65968 8.75945 8.68529C8.65123 8.7109 8.55463 8.77186 8.48494 8.85853L8.40206 8.96166C7.81265 9.69397 7.0054 10.6969 6.39703 11.7467C5.70162 12.9467 5.39847 13.9684 5.47487 14.8599C5.39394 14.863 5.31044 14.8641 5.22487 14.8627C5.05244 14.8595 4.88825 14.7883 4.768 14.6647C4.64774 14.5411 4.58113 14.375 4.58265 14.2025C4.59781 12.8305 4.83053 11.7888 5.27428 11.1063C5.2962 11.0727 5.31397 11.0364 5.32722 10.9985C5.45122 10.6432 5.49753 10.3446 5.46878 10.086C5.43153 9.75081 5.26112 9.4775 4.98894 9.31647C4.90017 9.26395 4.79734 9.24017 4.69453 9.24838C2.71744 9.40628 2.01412 9.24728 1.76594 9.1265C1.43469 8.86653 1.23975 8.60338 1.21556 8.38275C1.20178 8.25709 1.2465 8.13497 1.35225 8.00941C1.43562 7.91043 1.47736 7.78298 1.46871 7.65386C1.46005 7.52474 1.40167 7.404 1.30584 7.31703C1.21173 7.23118 1.13609 7.12705 1.08356 7.011C1.03103 6.89494 1.00271 6.7694 1.00031 6.64203C0.993092 6.38906 1.07934 6.152 1.23697 5.99166C1.32197 5.90516 1.37264 5.79071 1.37954 5.66963C1.38644 5.54855 1.3491 5.42909 1.27447 5.3335C1.0444 5.03875 0.953529 4.72075 1.02519 4.46106C1.10409 4.17503 1.36269 4.02119 1.56581 3.9425C1.68511 3.89627 1.78215 3.80606 1.83696 3.69044C1.89176 3.57482 1.90015 3.44259 1.8604 3.32097C1.58922 2.49116 1.84119 2.20222 1.92397 2.10713C2.24815 1.73525 3.36084 1.21434 7.17084 1.90384C7.17559 1.90472 7.18022 1.90553 7.18515 1.90622C7.71253 1.98594 8.71378 2.07784 9.88094 2.09059V8.89141C9.5339 8.86063 9.27072 8.80313 9.0825 8.71713ZM15 10.1076H10.8812V1.13678H15V10.1076ZM11.8241 9.057C11.8241 8.92439 11.8768 8.79722 11.9705 8.70345C12.0643 8.60968 12.1915 8.557 12.3241 8.557H12.3287C12.4613 8.557 12.5884 8.60968 12.6822 8.70345C12.776 8.79722 12.8287 8.92439 12.8287 9.057C12.8287 9.18961 12.776 9.31679 12.6822 9.41055C12.5884 9.50432 12.4613 9.557 12.3287 9.557H12.3241C12.1915 9.557 12.0643 9.50432 11.9705 9.41055C11.8768 9.31679 11.8241 9.18961 11.8241 9.057Z" fill="#031136"/>
</g>
<defs>
<clipPath id="clip0_1003_1929">
<rect width="16" height="16" fill="white"/>
</clipPath>
</defs>
</svg>
