<svg width="22" height="22" viewBox="0 0 22 22" fill="none" xmlns="http://www.w3.org/2000/svg">
<g clip-path="url(#clip0_944_266)">
<path d="M18.2567 0.828683C17.1478 -0.278181 15.3522 -0.278181 14.2433 0.828683L13.2388 1.83882L2.54466 12.5272L2.52193 12.5501C2.51648 12.5556 2.51648 12.5615 2.51057 12.5615C2.49921 12.5785 2.48216 12.5954 2.47102 12.6125C2.47102 12.6181 2.46512 12.6181 2.46512 12.6238C2.45375 12.6409 2.4483 12.6522 2.43671 12.6693C2.43125 12.675 2.43125 12.6805 2.42552 12.6863C2.41984 12.7034 2.41416 12.7147 2.4083 12.7318C2.4083 12.7372 2.40284 12.7372 2.40284 12.7431L0.0300703 19.878C-0.00405093 19.9776 -0.00937149 20.0847 0.0147212 20.1871C0.038814 20.2895 0.0913403 20.383 0.166252 20.4569C0.273569 20.5629 0.418461 20.6221 0.569298 20.6217C0.630934 20.6206 0.692025 20.611 0.750934 20.5933L7.88039 18.2149C7.88589 18.2149 7.88589 18.2149 7.89175 18.2094C7.9097 18.2041 7.92685 18.1964 7.94271 18.1865C7.94705 18.1859 7.9511 18.184 7.95425 18.181C7.97112 18.1696 7.99384 18.158 8.01089 18.1467C8.02775 18.1355 8.04498 18.1185 8.06203 18.1071C8.06771 18.1012 8.07321 18.1012 8.07321 18.0958C8.07912 18.09 8.09048 18.0845 8.09612 18.073L19.7948 6.37432C20.9017 5.2655 20.9017 3.46986 19.7948 2.36118L18.2567 0.828683ZM7.6988 16.8809L3.74816 12.9305L13.6361 3.0425L17.5868 6.99296L7.6988 16.8809ZM3.19171 13.9805L6.64307 17.4317L1.46052 19.1571L3.19171 13.9805ZM18.9946 5.57959L18.3929 6.187L14.4421 2.23623L15.0497 1.62896C15.7142 0.96491 16.7915 0.96491 17.4563 1.62896L19.0001 3.17286C19.6598 3.84046 19.6573 4.91518 18.9946 5.57959Z" fill="#031136"/>
</g>
<defs>
<clipPath id="clip0_944_266">
<rect width="22" height="22" fill="white"/>
</clipPath>
</defs>
</svg>
