<svg width="42" height="42" viewBox="0 0 42 42" fill="none" xmlns="http://www.w3.org/2000/svg">
<circle cx="21" cy="21" r="19.5" transform="rotate(-90 21 21)" stroke="#E8E8E8"/>
<path d="M21 0C25.7987 0 30.4527 1.64349 34.1872 4.65691C37.9218 7.67033 40.5117 11.8719 41.5257 16.5622C42.5398 21.2526 41.9169 26.1488 39.7608 30.4358C37.6046 34.7228 34.0452 38.1421 29.6751 40.1244C25.305 42.1068 20.3877 42.5326 15.7419 41.3311C11.096 40.1295 7.00181 37.3731 4.14073 33.5206C1.27965 29.6681 -0.175701 24.9519 0.0169258 20.157C0.209553 15.3622 2.03854 10.7779 5.19944 7.16735L7.1374 8.86394C4.36419 12.0317 2.75953 16.0537 2.59053 20.2604C2.42153 24.4672 3.69838 28.6049 6.20854 31.9849C8.71871 35.3649 12.3108 37.7833 16.3868 38.8374C20.4628 39.8916 24.777 39.518 28.6111 37.7788C32.4452 36.0396 35.568 33.0397 37.4597 29.2785C39.3514 25.5173 39.8979 21.2216 39.0082 17.1065C38.1185 12.9915 35.8463 9.30523 32.5698 6.66142C29.2933 4.01759 25.2101 2.57568 21 2.57568V0Z" fill="#123DAD"/>
<g clip-path="url(#clip0_944_290)">
<path d="M32.0557 18.0025C32.0598 18.0697 32.0539 18.1371 32.0379 18.2025L30.5576 24.124C30.5213 24.269 30.4377 24.3978 30.3202 24.4901C30.2026 24.5824 30.0576 24.6329 29.9082 24.6337L21.0259 24.6786H12.1402C11.99 24.6785 11.8442 24.6283 11.7259 24.5358C11.6076 24.4433 11.5236 24.314 11.4873 24.1682L10.0069 18.2243C9.9905 18.1572 9.98454 18.0879 9.98925 18.0189C9.41657 17.8385 9 17.3026 9 16.6711C9 15.8919 9.63387 15.258 10.4131 15.258C11.1923 15.258 11.8262 15.8919 11.8262 16.6711C11.8262 17.1099 11.6251 17.5025 11.3103 17.7619L13.1637 19.6293C13.6321 20.1013 14.2822 20.3719 14.9472 20.3719C15.7335 20.3719 16.4832 19.9985 16.9553 19.3729L20.0012 15.337C19.8698 15.206 19.7655 15.0504 19.6944 14.879C19.6233 14.7076 19.5868 14.5239 19.5869 14.3384C19.5869 13.5592 20.2208 12.9253 21 12.9253C21.7792 12.9253 22.4131 13.5592 22.4131 14.3384C22.4131 14.7163 22.2631 15.0593 22.0206 15.3131C22.0214 15.3142 22.0224 15.3151 22.0232 15.3162L25.0471 19.3633C25.519 19.9949 26.2714 20.372 27.0599 20.372C27.731 20.372 28.3621 20.1107 28.8366 19.6361L30.7017 17.771C30.3803 17.5117 30.1738 17.1153 30.1738 16.6711C30.1738 15.8919 30.8077 15.258 31.5869 15.258C32.3661 15.258 33 15.8919 33 16.6711C33 17.2858 32.6048 17.8086 32.0557 18.0025ZM30.4131 26.787C30.4131 26.6085 30.3422 26.4374 30.216 26.3112C30.0898 26.185 29.9187 26.1141 29.7402 26.1141H12.3346C12.1561 26.1141 11.985 26.185 11.8588 26.3112C11.7326 26.4374 11.6617 26.6085 11.6617 26.787V28.4019C11.6617 28.5804 11.7326 28.7515 11.8588 28.8777C11.985 29.0039 12.1561 29.0748 12.3346 29.0748H29.7402C29.9187 29.0748 30.0898 29.0039 30.216 28.8777C30.3422 28.7515 30.4131 28.5804 30.4131 28.4019V26.787Z" fill="#031136"/>
</g>
<defs>
<clipPath id="clip0_944_290">
<rect width="24" height="24" fill="white" transform="translate(9 9)"/>
</clipPath>
</defs>
</svg>
