<svg width="24" height="24" viewBox="0 0 24 24" fill="none" xmlns="http://www.w3.org/2000/svg">
<path d="M21.75 12C21.75 12.8325 20.73 13.5 20.52 14.2875C20.31 15.075 20.85 16.185 20.445 16.875C20.04 17.565 18.81 17.6625 18.24 18.24C17.67 18.8175 17.58 20.04 16.875 20.445C16.17 20.85 15.075 20.31 14.2875 20.52C13.5 20.73 12.8325 21.75 12 21.75C11.1675 21.75 10.5 20.73 9.75 20.52C9 20.31 7.8525 20.85 7.1625 20.445C6.4725 20.04 6.375 18.81 5.7975 18.24C5.22 17.67 3.9975 17.58 3.5925 16.875C3.1875 16.17 3.7275 15.075 3.5175 14.2875C3.3075 13.5 2.25 12.8325 2.25 12C2.25 11.1675 3.27 10.5 3.48 9.75C3.69 9 3.15 7.8525 3.555 7.1625C3.96 6.4725 5.19 6.3375 5.76 5.76C6.33 5.1825 6.42 3.96 7.125 3.555C7.83 3.15 8.925 3.69 9.7125 3.48C10.5 3.27 11.1675 2.25 12 2.25C12.8325 2.25 13.5 3.27 14.2875 3.48C15.075 3.69 16.185 3.15 16.875 3.555C17.565 3.96 17.6625 5.19 18.24 5.76C18.8175 6.33 20.04 6.42 20.445 7.125C20.85 7.83 20.31 8.925 20.52 9.7125C20.73 10.5 21.75 11.1675 21.75 12Z" fill="#109138"/>
<path d="M12 18.375C15.5208 18.375 18.375 15.5208 18.375 12C18.375 8.47918 15.5208 5.625 12 5.625C8.47918 5.625 5.625 8.47918 5.625 12C5.625 15.5208 8.47918 18.375 12 18.375Z" fill="#20BF55"/>
<path d="M11.3475 13.7774C11.2736 13.7777 11.2003 13.7633 11.1321 13.735C11.0638 13.7066 11.0019 13.6649 10.95 13.6124L9.20247 11.8949C9.09713 11.7894 9.03796 11.6464 9.03796 11.4974C9.03796 11.3483 9.09713 11.2053 9.20247 11.0999C9.30794 10.9945 9.45091 10.9354 9.59997 10.9354C9.74903 10.9354 9.892 10.9945 9.99747 11.0999L11.3475 12.4349L14.0025 9.81737C14.1089 9.71194 14.2528 9.65311 14.4026 9.65381C14.5524 9.65452 14.6958 9.7147 14.8012 9.82112C14.9066 9.92753 14.9655 10.0715 14.9648 10.2213C14.9641 10.3711 14.9039 10.5144 14.7975 10.6199L11.7375 13.6199C11.6868 13.6716 11.626 13.7123 11.5589 13.7394C11.4918 13.7665 11.4198 13.7794 11.3475 13.7774Z" fill="#EDEBEA"/>
</svg>
